<?xml version="1.0" encoding="utf-8"?>
<!-- Generator: Adobe Illustrator 16.0.0, SVG Export Plug-In . SVG Version: 6.00 Build 0)  -->
<!DOCTYPE svg PUBLIC "-//W3C//DTD SVG 1.1//EN" "http://www.w3.org/Graphics/SVG/1.1/DTD/svg11.dtd">
<svg version="1.1" id="Layer_1" xmlns="http://www.w3.org/2000/svg" xmlns:xlink="http://www.w3.org/1999/xlink" x="0px" y="0px"
	 width="40px" height="42px" viewBox="0 0 40 42" enable-background="new 0 0 40 42" xml:space="preserve">
<g>
	<g>
		<g>
			<path fill="#2E73BA" d="M38.05,15.622c-0.362-0.67-0.886-1.262-1.47-1.599L14.658,1.366c-0.343-0.198-0.667-0.285-0.949-0.271
				C13.596,1.1,13.49,1.121,13.391,1.157c-0.024,0.009-0.049,0.02-0.072,0.03c-0.166,0.077-0.306,0.2-0.413,0.365
				c-0.016,0.023-0.03,0.048-0.044,0.073c-0.126,0.228-0.198,0.523-0.199,0.878l-0.049,17.21c-0.001,0.355,0.068,0.731,0.193,1.104
				c0.014,0.041,0.028,0.083,0.043,0.124c0.106,0.289,0.246,0.573,0.41,0.839c0.024,0.039,0.048,0.076,0.072,0.114
				c0.147,0.225,0.312,0.436,0.49,0.626c0.238,0.253,0.5,0.468,0.774,0.626l21.918,12.655c1.101,0.635,1.995,0.124,1.999-1.142
				l0.049-17.204C38.563,16.864,38.37,16.212,38.05,15.622z M22.634,12.799l-0.006,2.044c-0.002,0.615-0.437,0.864-0.973,0.555
				l-5.006-2.89c-0.535-0.309-0.968-1.059-0.967-1.674l0.013-4.422c0.002-0.615,0.438-0.863,0.973-0.554l5.006,2.89
				c0.535,0.309,0.968,1.059,0.966,1.674L22.634,12.799z"/>
		</g>
		<path fill="#005888" d="M38.514,34.66c0,0.037-0.001,0.073-0.003,0.109c0,0.01-0.001,0.02-0.002,0.03
			c-0.001,0.024-0.003,0.049-0.005,0.073c-0.001,0.014-0.003,0.027-0.005,0.041c-0.002,0.021-0.004,0.041-0.007,0.061
			c-0.002,0.015-0.004,0.029-0.007,0.043c-0.003,0.019-0.006,0.037-0.009,0.055c-0.003,0.017-0.007,0.032-0.01,0.048
			c-0.004,0.016-0.007,0.032-0.011,0.048c-0.005,0.019-0.01,0.036-0.015,0.055c-0.004,0.014-0.008,0.028-0.012,0.042
			c-0.007,0.021-0.014,0.042-0.021,0.063c-0.004,0.011-0.008,0.022-0.012,0.033c-0.014,0.035-0.027,0.068-0.043,0.102
			c-0.002,0.003-0.003,0.007-0.005,0.011c-0.021,0.043-0.044,0.084-0.068,0.123c-0.002,0.003-0.003,0.006-0.005,0.009
			c-0.021,0.031-0.042,0.062-0.065,0.09c-0.005,0.007-0.011,0.014-0.017,0.021c-0.021,0.026-0.045,0.052-0.068,0.076
			c-0.002,0.001-0.004,0.003-0.005,0.005c-0.026,0.025-0.053,0.048-0.081,0.069c-0.006,0.005-0.013,0.011-0.02,0.016
			c-0.028,0.021-0.058,0.041-0.088,0.059l1.438-0.836c0.03-0.018,0.06-0.037,0.088-0.059c0.007-0.005,0.014-0.01,0.02-0.015
			c0.028-0.022,0.055-0.045,0.081-0.069c0.001-0.002,0.003-0.004,0.005-0.006c0.023-0.023,0.047-0.049,0.068-0.075
			c0.006-0.007,0.012-0.014,0.017-0.021c0.023-0.029,0.045-0.059,0.065-0.091c0-0.001,0.001-0.001,0.002-0.002
			c0.001-0.002,0.002-0.005,0.003-0.007c0.024-0.039,0.047-0.08,0.068-0.123c0.001-0.002,0.003-0.004,0.004-0.007
			c0-0.001,0.001-0.003,0.001-0.004c0.016-0.032,0.029-0.066,0.043-0.101c0.001-0.004,0.003-0.006,0.004-0.009
			c0.003-0.009,0.005-0.017,0.008-0.025c0.008-0.021,0.015-0.042,0.021-0.063c0.002-0.006,0.004-0.011,0.006-0.017
			c0.002-0.008,0.004-0.017,0.006-0.024c0.005-0.019,0.01-0.037,0.015-0.056c0.002-0.007,0.004-0.015,0.006-0.021
			c0.002-0.009,0.003-0.018,0.005-0.025c0.003-0.017,0.007-0.032,0.01-0.048c0.001-0.009,0.003-0.017,0.005-0.024
			c0.002-0.01,0.003-0.021,0.004-0.03c0.003-0.015,0.005-0.028,0.007-0.043c0.001-0.008,0.002-0.015,0.003-0.022
			c0.002-0.013,0.003-0.025,0.004-0.039c0.002-0.014,0.004-0.026,0.005-0.041c0-0.005,0.001-0.011,0.002-0.017
			c0.001-0.019,0.002-0.037,0.003-0.057c0.001-0.01,0.002-0.02,0.002-0.029c0-0.003,0-0.006,0.001-0.008
			c0.001-0.032,0.002-0.063,0.002-0.097c0-0.002,0-0.004,0-0.006L38.514,34.66z"/>
		<polygon fill="#005888" points="38.563,17.456 38.514,34.66 39.951,33.824 40,16.621 		"/>
		<polygon fill="#40B4DF" points="16.096,0.531 14.658,1.366 36.58,14.023 38.018,13.188 		"/>
		<path fill="#056DB6" d="M38.264,16.07c0.001,0.003,0.003,0.007,0.005,0.011c0.028,0.07,0.056,0.142,0.08,0.213
			c0.003,0.007,0.006,0.015,0.008,0.022c0.024,0.07,0.047,0.141,0.066,0.211c0.002,0.006,0.004,0.012,0.006,0.018
			c0.021,0.075,0.04,0.15,0.057,0.226c0,0,0,0.001,0,0.001c0.017,0.075,0.03,0.15,0.041,0.224c0.001,0.006,0.002,0.012,0.003,0.018
			c0.01,0.069,0.018,0.139,0.023,0.208c0,0.006,0.001,0.013,0.002,0.02c0.005,0.073,0.008,0.145,0.008,0.216L40,16.621
			c0-0.03,0-0.06-0.001-0.09c-0.001-0.032-0.003-0.063-0.005-0.096c-0.001-0.01-0.002-0.02-0.002-0.029
			c-0.001-0.007-0.002-0.014-0.002-0.02c-0.001-0.016-0.002-0.032-0.004-0.047c-0.003-0.032-0.007-0.065-0.011-0.098
			c-0.003-0.021-0.006-0.042-0.009-0.063c-0.001-0.006-0.002-0.012-0.003-0.018c-0.001-0.006-0.001-0.013-0.002-0.019
			c-0.006-0.034-0.012-0.067-0.018-0.102c-0.007-0.034-0.014-0.068-0.021-0.103c0,0,0,0,0,0c0,0,0,0,0-0.001
			c-0.008-0.034-0.016-0.069-0.024-0.103c-0.009-0.035-0.018-0.07-0.027-0.105c-0.002-0.006-0.004-0.011-0.005-0.017
			c-0.002-0.006-0.004-0.012-0.006-0.018c-0.006-0.023-0.013-0.047-0.021-0.071c-0.011-0.035-0.021-0.069-0.033-0.104
			c-0.004-0.012-0.009-0.024-0.013-0.037c-0.002-0.007-0.005-0.015-0.008-0.022c-0.005-0.014-0.01-0.028-0.015-0.042
			c-0.012-0.032-0.023-0.065-0.036-0.098c-0.01-0.024-0.02-0.048-0.029-0.073c-0.002-0.004-0.003-0.008-0.005-0.011
			c-0.002-0.004-0.003-0.007-0.005-0.011c-0.013-0.031-0.026-0.063-0.04-0.094c-0.015-0.032-0.029-0.064-0.044-0.096
			c-0.002-0.005-0.005-0.011-0.008-0.017S39.599,15.005,39.596,15c-0.011-0.023-0.021-0.045-0.032-0.068
			c-0.02-0.039-0.039-0.078-0.06-0.116c-0.006-0.01-0.011-0.02-0.017-0.03c-0.023-0.045-0.049-0.089-0.074-0.133
			c-0.002-0.002-0.003-0.005-0.004-0.007c-0.002-0.003-0.004-0.006-0.006-0.009c-0.05-0.086-0.104-0.169-0.158-0.252
			c-0.003-0.003-0.005-0.007-0.007-0.011c-0.006-0.008-0.012-0.015-0.017-0.023c-0.027-0.039-0.055-0.078-0.082-0.116
			c-0.006-0.008-0.012-0.016-0.017-0.023c-0.004-0.004-0.007-0.008-0.01-0.013c-0.014-0.017-0.026-0.034-0.039-0.051
			c-0.012-0.015-0.023-0.03-0.034-0.044c-0.005-0.005-0.009-0.01-0.013-0.016c-0.011-0.013-0.021-0.026-0.031-0.039
			c-0.012-0.014-0.022-0.027-0.033-0.041c-0.007-0.008-0.014-0.016-0.021-0.024c-0.011-0.013-0.021-0.025-0.031-0.037
			c-0.008-0.009-0.016-0.019-0.024-0.028c-0.01-0.012-0.021-0.023-0.031-0.035c-0.011-0.011-0.021-0.023-0.031-0.035
			c-0.005-0.005-0.01-0.011-0.015-0.016c-0.016-0.017-0.031-0.033-0.047-0.049c-0.009-0.009-0.019-0.019-0.027-0.028
			c-0.002-0.002-0.004-0.005-0.007-0.007c-0.027-0.029-0.056-0.057-0.084-0.084c0,0,0,0-0.001,0
			c-0.001-0.001-0.002-0.002-0.003-0.003c-0.027-0.027-0.056-0.053-0.084-0.078c-0.002-0.002-0.004-0.004-0.007-0.006
			c-0.01-0.009-0.021-0.019-0.031-0.028c-0.017-0.015-0.033-0.029-0.051-0.043c-0.004-0.004-0.009-0.008-0.014-0.012
			c-0.012-0.01-0.024-0.02-0.036-0.029c-0.013-0.011-0.025-0.021-0.038-0.032c-0.008-0.006-0.016-0.012-0.023-0.018
			c-0.013-0.009-0.024-0.019-0.037-0.028c-0.009-0.007-0.019-0.014-0.027-0.021c-0.013-0.009-0.024-0.018-0.037-0.026
			c-0.011-0.008-0.022-0.016-0.033-0.024c-0.005-0.003-0.011-0.007-0.016-0.011c-0.022-0.015-0.045-0.029-0.066-0.044
			c-0.006-0.003-0.011-0.007-0.016-0.01c-0.001,0-0.002-0.001-0.003-0.002c-0.027-0.018-0.056-0.035-0.084-0.051
			c-0.006-0.004-0.013-0.008-0.02-0.012l-1.438,0.835c0.036,0.021,0.071,0.042,0.106,0.065c0.005,0.003,0.01,0.006,0.016,0.01
			c0.027,0.018,0.055,0.036,0.082,0.055c0.011,0.008,0.022,0.016,0.033,0.024c0.021,0.016,0.043,0.031,0.064,0.047
			c0.013,0.009,0.024,0.019,0.037,0.028c0.021,0.016,0.041,0.033,0.062,0.049c0.012,0.01,0.024,0.02,0.036,0.029
			c0.021,0.018,0.043,0.037,0.064,0.056c0.011,0.009,0.021,0.018,0.031,0.027c0.031,0.027,0.062,0.055,0.091,0.084
			c0.001,0.001,0.002,0.002,0.003,0.003c0.031,0.029,0.062,0.06,0.092,0.091c0.009,0.009,0.019,0.019,0.027,0.028
			c0.021,0.021,0.041,0.043,0.062,0.065c0.011,0.012,0.021,0.023,0.031,0.035c0.019,0.021,0.037,0.042,0.056,0.063
			c0.011,0.012,0.021,0.024,0.031,0.037c0.018,0.021,0.036,0.042,0.054,0.064c0.01,0.013,0.021,0.026,0.031,0.039
			c0.016,0.02,0.031,0.04,0.047,0.061c0.013,0.017,0.025,0.034,0.038,0.051c0.01,0.012,0.019,0.024,0.027,0.037
			c0.027,0.038,0.055,0.077,0.082,0.115c0.008,0.012,0.016,0.023,0.023,0.035c0.055,0.082,0.107,0.166,0.158,0.251
			c0.003,0.005,0.007,0.011,0.01,0.017c0.025,0.043,0.051,0.088,0.074,0.133c0.038,0.07,0.074,0.142,0.109,0.213
			c0.002,0.006,0.005,0.011,0.008,0.017C38.201,15.924,38.233,15.997,38.264,16.07z"/>
		<g>
			<g>
				<path fill="#FDE66B" d="M19.758,10.139l-1.166-0.673c-0.478-0.276-0.897-0.094-0.911,0.447c0,0.009,0,0.018,0,0.027
					c-0.001,0.551,0.386,1.222,0.865,1.499l1.166,0.673c0.478,0.276,0.897,0.095,0.911-0.447c0-0.009,0-0.017,0-0.026
					C20.625,11.087,20.238,10.416,19.758,10.139z"/>
				<path fill="#FBAF52" d="M20.623,11.638c0,0.009,0,0.017,0,0.026c-0.013,0.542-0.433,0.723-0.911,0.447l-1.166-0.673
					c-0.479-0.277-0.867-0.948-0.865-1.499l-0.709-0.41l-0.625-0.36l-0.658-0.38l-0.006,2.045c-0.001,0.615,0.432,1.365,0.967,1.674
					l5.006,2.89c0.536,0.309,0.971,0.061,0.973-0.555l0.006-2.044L20.623,11.638z"/>
				<path fill="#FFCF4E" d="M21.675,8.748l-5.006-2.89c-0.535-0.309-0.971-0.061-0.973,0.554l-0.013,4.422l0.006-2.045l0.658,0.38
					l0.625,0.36l0.709,0.41c0-0.009,0-0.018,0-0.027c0.014-0.541,0.434-0.723,0.911-0.447l1.166,0.673
					c0.48,0.277,0.867,0.948,0.865,1.5l2.011,1.161l0.007-2.377C22.643,9.807,22.21,9.057,21.675,8.748z"/>
			</g>
			<g>
				<g>
					<path fill="#464E68" d="M24.177,24.515c0.252,0.146,0.455,0.523,0.454,0.845s-0.206,0.465-0.457,0.319l-8.208-4.739
						c-0.252-0.146-0.455-0.524-0.454-0.845s0.206-0.464,0.458-0.318L24.177,24.515z"/>
				</g>
				<g>
					<path fill="#464E68" d="M29.535,27.608c0.244,0.141,0.467,0.459,0.513,0.762c0.062,0.409-0.187,0.593-0.499,0.412l-3.53-2.038
						c-0.243-0.141-0.466-0.459-0.512-0.762c-0.062-0.409,0.186-0.593,0.499-0.412L29.535,27.608z"/>
				</g>
			</g>
		</g>
		<path fill="#40B4DF" d="M13.907,1.102c0.009,0.001,0.019,0.001,0.028,0.002c0.034,0.004,0.068,0.01,0.103,0.017
			c0.007,0.001,0.014,0.003,0.021,0.005c0.029,0.006,0.058,0.013,0.087,0.021c0.009,0.002,0.018,0.005,0.027,0.007
			c0.035,0.01,0.07,0.021,0.106,0.034c0.004,0.001,0.009,0.003,0.013,0.004c0.033,0.012,0.066,0.025,0.099,0.039
			c0.008,0.003,0.016,0.007,0.024,0.01c0.036,0.016,0.073,0.033,0.109,0.051c0.007,0.003,0.013,0.007,0.02,0.011
			c0.038,0.019,0.076,0.04,0.114,0.062l1.438-0.835c-0.021-0.012-0.042-0.024-0.064-0.036c-0.017-0.009-0.034-0.018-0.05-0.026
			c-0.007-0.003-0.013-0.007-0.02-0.01c-0.003-0.002-0.007-0.004-0.011-0.006c-0.027-0.013-0.054-0.026-0.081-0.038
			c-0.006-0.003-0.012-0.005-0.018-0.008c-0.008-0.004-0.016-0.007-0.024-0.011c-0.012-0.005-0.025-0.011-0.037-0.016
			c-0.021-0.008-0.042-0.016-0.062-0.023c-0.004-0.002-0.008-0.003-0.013-0.005c-0.001-0.001-0.003-0.001-0.005-0.002
			c-0.027-0.01-0.054-0.019-0.08-0.026c-0.007-0.002-0.014-0.004-0.021-0.006c-0.009-0.002-0.018-0.005-0.027-0.007
			c-0.011-0.003-0.022-0.006-0.034-0.009c-0.018-0.004-0.036-0.008-0.053-0.012c-0.007-0.001-0.014-0.003-0.021-0.005
			c-0.003,0-0.006-0.001-0.008-0.002c-0.029-0.005-0.058-0.01-0.085-0.014c-0.003,0-0.006,0-0.009,0
			c-0.009-0.001-0.019-0.002-0.028-0.003c-0.018-0.002-0.035-0.004-0.052-0.005c-0.007,0-0.014,0-0.021-0.001
			c-0.013,0-0.026-0.001-0.04-0.001c-0.011,0-0.022-0.001-0.033-0.001c-0.018,0-0.035,0-0.052,0.001
			c-0.017,0-0.033,0.002-0.049,0.003c-0.004,0-0.008,0.001-0.013,0.001c-0.033,0.003-0.065,0.008-0.097,0.014
			c-0.001,0-0.002,0-0.003,0c0,0,0,0,0,0c-0.043,0.008-0.085,0.021-0.126,0.034c-0.004,0.001-0.007,0.001-0.011,0.003
			c-0.005,0.002-0.011,0.004-0.017,0.006c-0.024,0.009-0.048,0.02-0.072,0.03c-0.026,0.012-0.052,0.025-0.077,0.04l-1.438,0.835
			c0.025-0.015,0.051-0.028,0.077-0.04c0.023-0.011,0.048-0.021,0.072-0.03c0.009-0.003,0.019-0.006,0.028-0.009
			c0.041-0.014,0.083-0.026,0.126-0.034c0.001,0,0.002,0,0.004-0.001c0.032-0.006,0.064-0.01,0.097-0.014
			c0.021-0.002,0.041-0.004,0.062-0.005c0.028-0.001,0.056-0.001,0.085,0c0.013,0,0.026,0.001,0.04,0.001
			C13.858,1.097,13.882,1.099,13.907,1.102z"/>
		<path fill="#40B4DF" d="M23.608,19.709c0.473,0.273,0.9,0.885,1.003,1.475c0.146,0.847-0.354,1.232-0.991,0.865l-1.499-0.867
			c-0.474-0.273-0.901-0.884-1.004-1.475c-0.146-0.846,0.355-1.231,0.99-0.864L23.608,19.709z"/>
		<path fill="#40B4DF" d="M34.485,26.047c0.473,0.273,0.9,0.885,1.002,1.475c0.146,0.847-0.354,1.231-0.99,0.864l-1.499-0.865
			c-0.474-0.273-0.901-0.885-1.004-1.476c-0.146-0.846,0.355-1.231,0.99-0.864L34.485,26.047z"/>
		<path fill="#40B4DF" d="M29.029,22.819c0.473,0.273,0.9,0.885,1.003,1.475c0.146,0.847-0.354,1.232-0.991,0.865l-1.499-0.866
			c-0.474-0.273-0.901-0.885-1.004-1.476c-0.146-0.846,0.355-1.231,0.99-0.864L29.029,22.819z"/>
		<path fill="#40B4DF" d="M18.098,16.51c0.473,0.273,0.901,0.885,1.003,1.475c0.146,0.847-0.354,1.232-0.99,0.864l-1.5-0.866
			c-0.474-0.273-0.901-0.885-1.003-1.475c-0.146-0.846,0.355-1.231,0.991-0.864L18.098,16.51z"/>
		<path fill="#FFCF4E" d="M33.038,15.49c-0.677-0.391-1.292-0.434-1.742-0.188c-0.461,0.253-0.749,0.811-0.751,1.61
			c-0.002,0.799,0.281,1.686,0.74,2.47c0.446,0.764,1.06,1.43,1.737,1.82c1.373,0.793,2.489,0.157,2.494-1.42
			C35.521,18.205,34.411,16.283,33.038,15.49z"/>
	</g>
	<g>
		<g>
			<path fill="#EB494A" d="M25.437,21.289c-0.362-0.669-0.887-1.261-1.47-1.598L2.044,7.034C1.701,6.836,1.377,6.75,1.095,6.763
				C0.982,6.768,0.876,6.789,0.777,6.825c-0.024,0.009-0.049,0.019-0.072,0.03C0.54,6.932,0.399,7.055,0.292,7.22
				c-0.016,0.024-0.03,0.048-0.044,0.073C0.121,7.52,0.05,7.815,0.049,8.17L0,25.382c-0.001,0.354,0.068,0.731,0.193,1.104
				c0.014,0.041,0.028,0.083,0.043,0.124c0.106,0.288,0.246,0.572,0.41,0.84c0.024,0.038,0.048,0.076,0.072,0.113
				c0.147,0.225,0.312,0.436,0.49,0.626c0.238,0.253,0.5,0.468,0.774,0.626L23.901,41.47c1.1,0.635,1.995,0.124,1.998-1.142
				l0.049-17.204C25.95,22.532,25.756,21.88,25.437,21.289z M10.02,18.467l-0.006,2.044c-0.001,0.615-0.437,0.863-0.972,0.555
				l-5.006-2.89c-0.535-0.309-0.968-1.059-0.967-1.674l0.013-4.422c0.001-0.615,0.438-0.864,0.973-0.555l5.006,2.891
				c0.536,0.309,0.968,1.059,0.966,1.674L10.02,18.467z"/>
		</g>
		<path fill="#A92623" d="M25.899,40.327c0,0.038-0.001,0.074-0.002,0.11c-0.001,0.01-0.002,0.02-0.002,0.03
			c-0.002,0.024-0.004,0.049-0.006,0.073c-0.001,0.014-0.003,0.027-0.004,0.041c-0.002,0.021-0.005,0.041-0.008,0.061
			c-0.002,0.015-0.004,0.029-0.006,0.043c-0.003,0.019-0.006,0.037-0.01,0.055c-0.003,0.016-0.006,0.032-0.01,0.048
			c-0.003,0.016-0.007,0.032-0.011,0.048c-0.004,0.019-0.009,0.036-0.014,0.055c-0.004,0.014-0.008,0.027-0.013,0.042
			c-0.006,0.021-0.014,0.042-0.021,0.063c-0.004,0.011-0.008,0.022-0.012,0.033c-0.014,0.035-0.028,0.068-0.043,0.102
			c-0.002,0.003-0.004,0.007-0.006,0.01c-0.021,0.044-0.043,0.085-0.067,0.123c-0.002,0.003-0.004,0.007-0.006,0.01
			c-0.021,0.031-0.042,0.062-0.064,0.09c-0.006,0.007-0.012,0.014-0.017,0.021c-0.022,0.026-0.045,0.052-0.069,0.076
			c-0.002,0.001-0.003,0.003-0.005,0.005c-0.025,0.024-0.053,0.048-0.08,0.069c-0.007,0.005-0.014,0.01-0.021,0.016
			c-0.028,0.021-0.058,0.041-0.088,0.059l1.438-0.836c0.03-0.018,0.06-0.037,0.088-0.059c0.007-0.005,0.014-0.01,0.021-0.016
			c0.027-0.021,0.055-0.044,0.08-0.069c0.002-0.001,0.003-0.003,0.005-0.005c0.024-0.023,0.047-0.049,0.069-0.075
			c0.005-0.007,0.011-0.014,0.017-0.021c0.022-0.029,0.044-0.059,0.064-0.091c0.001-0.001,0.002-0.001,0.002-0.002
			c0.001-0.002,0.002-0.005,0.004-0.007c0.024-0.039,0.047-0.08,0.067-0.123c0.001-0.002,0.003-0.005,0.004-0.007
			c0.001-0.001,0.001-0.003,0.002-0.004c0.015-0.032,0.029-0.066,0.043-0.102c0.001-0.003,0.002-0.005,0.003-0.008
			c0.003-0.009,0.006-0.017,0.009-0.025c0.007-0.021,0.015-0.042,0.021-0.063c0.002-0.006,0.004-0.011,0.006-0.017
			c0.002-0.008,0.004-0.017,0.007-0.025c0.005-0.018,0.01-0.036,0.014-0.055c0.002-0.008,0.004-0.015,0.006-0.022
			s0.004-0.017,0.005-0.025c0.004-0.016,0.007-0.031,0.01-0.047c0.002-0.009,0.004-0.017,0.005-0.025
			c0.002-0.01,0.003-0.02,0.005-0.029c0.002-0.015,0.004-0.029,0.006-0.044c0.002-0.007,0.003-0.015,0.004-0.021
			c0.002-0.013,0.003-0.026,0.004-0.039c0.001-0.014,0.003-0.027,0.004-0.041c0.001-0.005,0.002-0.011,0.002-0.017
			c0.002-0.019,0.003-0.037,0.004-0.057c0-0.01,0.001-0.02,0.002-0.03c0-0.002,0-0.005,0-0.007c0.001-0.032,0.002-0.064,0.002-0.097
			c0-0.002,0-0.004,0-0.006L25.899,40.327z"/>
		<polygon fill="#A92623" points="25.948,23.124 25.899,40.327 27.337,39.492 27.386,22.289 		"/>
		<polygon fill="#F26E6E" points="3.482,6.199 2.044,7.034 23.967,19.691 25.404,18.855 		"/>
		<path fill="#F26E6E" d="M25.649,21.737c0.002,0.004,0.003,0.008,0.005,0.012c0.029,0.07,0.056,0.142,0.081,0.213
			c0.002,0.007,0.005,0.015,0.008,0.021c0.023,0.071,0.046,0.142,0.066,0.212c0.002,0.006,0.004,0.012,0.005,0.018
			c0.021,0.075,0.04,0.15,0.057,0.226c0,0.001,0,0.001,0,0.001c0.017,0.075,0.03,0.15,0.042,0.225
			c0.001,0.006,0.001,0.012,0.002,0.018c0.011,0.069,0.019,0.139,0.023,0.207c0.001,0.007,0.002,0.013,0.002,0.02
			c0.005,0.073,0.009,0.145,0.008,0.216l1.438-0.835c0-0.03,0-0.061-0.001-0.091c-0.001-0.031-0.002-0.063-0.005-0.096
			c0-0.01-0.001-0.02-0.002-0.029c0-0.007-0.001-0.014-0.002-0.021c-0.001-0.016-0.002-0.031-0.003-0.047
			c-0.004-0.033-0.007-0.065-0.012-0.098c-0.002-0.021-0.006-0.042-0.009-0.063c-0.001-0.006-0.001-0.012-0.002-0.018
			c-0.001-0.007-0.002-0.013-0.003-0.02c-0.005-0.033-0.011-0.067-0.018-0.102s-0.014-0.068-0.021-0.103v-0.001
			c-0.001,0-0.001,0-0.001-0.001c-0.007-0.034-0.016-0.068-0.023-0.103c-0.009-0.036-0.019-0.071-0.028-0.106
			c-0.001-0.005-0.003-0.011-0.005-0.017c-0.001-0.006-0.003-0.012-0.005-0.018c-0.007-0.023-0.014-0.047-0.021-0.07
			c-0.011-0.035-0.021-0.069-0.033-0.104c-0.004-0.013-0.009-0.024-0.013-0.037c-0.003-0.008-0.006-0.015-0.008-0.021
			c-0.005-0.015-0.01-0.028-0.015-0.043c-0.012-0.032-0.024-0.064-0.037-0.097c-0.01-0.024-0.02-0.049-0.029-0.073
			c-0.001-0.004-0.003-0.008-0.005-0.012c-0.001-0.003-0.003-0.007-0.004-0.011c-0.014-0.032-0.026-0.063-0.041-0.094
			c-0.014-0.032-0.028-0.064-0.043-0.096c-0.003-0.005-0.006-0.011-0.008-0.017c-0.003-0.006-0.006-0.011-0.009-0.017
			c-0.011-0.023-0.021-0.045-0.033-0.068c-0.019-0.039-0.039-0.077-0.06-0.115c-0.005-0.01-0.011-0.02-0.016-0.03
			c-0.024-0.044-0.049-0.089-0.075-0.133c-0.001-0.002-0.002-0.005-0.004-0.007c-0.002-0.003-0.004-0.005-0.005-0.009
			c-0.051-0.085-0.104-0.169-0.159-0.251c-0.002-0.003-0.004-0.007-0.007-0.011c-0.005-0.008-0.011-0.015-0.017-0.023
			c-0.026-0.039-0.054-0.078-0.082-0.116c-0.006-0.008-0.011-0.016-0.017-0.023c-0.003-0.004-0.007-0.008-0.01-0.013
			c-0.013-0.017-0.026-0.034-0.039-0.051c-0.012-0.015-0.022-0.03-0.034-0.045c-0.004-0.005-0.008-0.01-0.013-0.015
			c-0.01-0.013-0.021-0.026-0.031-0.039s-0.021-0.027-0.032-0.041c-0.007-0.008-0.014-0.016-0.021-0.023
			c-0.011-0.013-0.021-0.025-0.032-0.037c-0.008-0.009-0.016-0.019-0.023-0.028c-0.011-0.012-0.021-0.023-0.032-0.035
			c-0.01-0.012-0.021-0.023-0.03-0.035c-0.006-0.005-0.01-0.011-0.016-0.016c-0.015-0.017-0.031-0.033-0.047-0.049
			c-0.009-0.009-0.018-0.019-0.026-0.028c-0.003-0.002-0.005-0.005-0.007-0.007c-0.028-0.028-0.057-0.056-0.085-0.083l0,0
			c-0.001-0.001-0.002-0.002-0.003-0.003c-0.028-0.026-0.056-0.052-0.084-0.078c-0.002-0.002-0.005-0.004-0.007-0.006
			c-0.011-0.009-0.021-0.019-0.032-0.028c-0.017-0.015-0.033-0.029-0.05-0.044c-0.005-0.004-0.01-0.007-0.014-0.011
			c-0.013-0.01-0.024-0.02-0.036-0.029c-0.014-0.011-0.026-0.021-0.039-0.032c-0.008-0.006-0.016-0.012-0.023-0.018
			c-0.012-0.01-0.024-0.019-0.036-0.028c-0.01-0.007-0.019-0.015-0.028-0.021c-0.012-0.009-0.024-0.017-0.036-0.026
			c-0.012-0.008-0.022-0.016-0.034-0.024c-0.005-0.003-0.01-0.008-0.016-0.011c-0.021-0.015-0.044-0.03-0.066-0.044
			c-0.005-0.003-0.01-0.007-0.015-0.01c-0.001-0.001-0.002-0.001-0.003-0.002c-0.028-0.018-0.057-0.035-0.084-0.052
			c-0.007-0.003-0.014-0.007-0.02-0.011l-1.438,0.835c0.035,0.021,0.071,0.042,0.106,0.065c0.005,0.003,0.01,0.006,0.015,0.01
			c0.027,0.018,0.055,0.036,0.082,0.055c0.012,0.008,0.022,0.016,0.034,0.024c0.021,0.016,0.043,0.031,0.064,0.047
			c0.012,0.009,0.024,0.018,0.036,0.028c0.021,0.016,0.042,0.032,0.063,0.049c0.012,0.01,0.023,0.02,0.036,0.03
			c0.021,0.018,0.043,0.037,0.064,0.055c0.01,0.009,0.021,0.019,0.031,0.028c0.03,0.027,0.061,0.055,0.091,0.083
			c0.001,0.001,0.002,0.002,0.003,0.003c0.03,0.029,0.062,0.06,0.092,0.091c0.009,0.009,0.018,0.019,0.026,0.028
			c0.021,0.021,0.042,0.043,0.062,0.065c0.011,0.011,0.021,0.023,0.031,0.035c0.02,0.021,0.038,0.042,0.056,0.063
			c0.011,0.012,0.021,0.024,0.032,0.037c0.018,0.021,0.035,0.042,0.053,0.064c0.011,0.013,0.021,0.026,0.031,0.039
			c0.017,0.02,0.031,0.04,0.047,0.06c0.013,0.017,0.026,0.034,0.039,0.051c0.009,0.012,0.018,0.024,0.026,0.036
			c0.028,0.038,0.056,0.077,0.082,0.116c0.008,0.012,0.016,0.023,0.023,0.035c0.056,0.082,0.108,0.166,0.158,0.251
			c0.004,0.006,0.007,0.011,0.01,0.017c0.026,0.044,0.051,0.088,0.075,0.133c0.038,0.07,0.074,0.142,0.108,0.214
			c0.003,0.006,0.006,0.011,0.008,0.017C25.587,21.592,25.619,21.664,25.649,21.737z"/>
		<g>
			<g>
				<path fill="#FDE66B" d="M7.144,15.807l-1.166-0.673c-0.478-0.276-0.897-0.095-0.911,0.447c0,0.009,0,0.018,0,0.026
					c-0.001,0.551,0.386,1.222,0.865,1.499l1.166,0.673c0.478,0.276,0.897,0.095,0.911-0.447c0-0.009,0-0.017,0-0.026
					C8.011,16.755,7.624,16.084,7.144,15.807z"/>
				<path fill="#FBAF52" d="M8.009,17.306c0,0.009,0,0.017,0,0.026c-0.013,0.542-0.433,0.723-0.911,0.447l-1.166-0.673
					c-0.479-0.277-0.867-0.948-0.865-1.499l-0.709-0.409l-0.625-0.361l-0.658-0.38l-0.006,2.044
					c-0.001,0.615,0.432,1.366,0.967,1.675l5.006,2.89c0.535,0.309,0.971,0.061,0.972-0.555l0.006-2.045L8.009,17.306z"/>
				<path fill="#FFCF4E" d="M9.061,14.416l-5.006-2.891c-0.535-0.309-0.971-0.061-0.973,0.555l-0.013,4.422l0.006-2.044l0.658,0.38
					l0.625,0.361l0.709,0.409c0-0.009,0-0.018,0-0.026c0.014-0.542,0.434-0.723,0.911-0.447l1.166,0.673
					c0.48,0.277,0.867,0.948,0.865,1.5l2.011,1.161l0.007-2.377C10.029,15.474,9.596,14.725,9.061,14.416z"/>
			</g>
			<g>
				<g>
					<path fill="#A92623" d="M11.563,30.183c0.252,0.146,0.455,0.524,0.454,0.846s-0.206,0.464-0.458,0.318l-8.207-4.738
						c-0.252-0.146-0.455-0.524-0.454-0.846s0.206-0.464,0.458-0.318L11.563,30.183z"/>
				</g>
				<g>
					<path fill="#A92623" d="M16.921,33.276c0.244,0.141,0.466,0.459,0.512,0.762c0.062,0.409-0.186,0.593-0.499,0.412l-3.53-2.038
						c-0.244-0.141-0.466-0.459-0.512-0.761c-0.062-0.41,0.185-0.594,0.499-0.412L16.921,33.276z"/>
				</g>
			</g>
		</g>
		<path fill="#F26E6E" d="M1.293,6.77c0.009,0.001,0.019,0.002,0.028,0.003c0.034,0.004,0.068,0.01,0.103,0.017
			c0.007,0.001,0.014,0.003,0.021,0.004C1.473,6.8,1.502,6.807,1.532,6.815C1.541,6.818,1.55,6.82,1.559,6.823
			c0.035,0.01,0.07,0.021,0.106,0.034C1.669,6.858,1.673,6.86,1.677,6.861C1.71,6.874,1.743,6.886,1.776,6.9
			c0.008,0.003,0.016,0.007,0.024,0.01C1.837,6.927,1.874,6.943,1.91,6.962c0.007,0.003,0.013,0.007,0.02,0.01
			c0.038,0.02,0.076,0.04,0.114,0.062l1.438-0.835C3.46,6.187,3.439,6.174,3.418,6.163c-0.017-0.009-0.034-0.018-0.05-0.026
			c-0.007-0.003-0.013-0.007-0.02-0.01C3.344,6.125,3.34,6.123,3.337,6.121C3.31,6.108,3.283,6.095,3.256,6.083
			C3.25,6.081,3.244,6.078,3.238,6.075C3.23,6.072,3.222,6.068,3.214,6.065C3.202,6.06,3.189,6.054,3.177,6.049
			C3.156,6.041,3.135,6.034,3.115,6.026C3.111,6.024,3.106,6.022,3.102,6.021c-0.001,0-0.003-0.001-0.005-0.001
			C3.07,6.01,3.043,6.001,3.017,5.993C3.01,5.991,3.003,5.989,2.996,5.987C2.987,5.985,2.978,5.982,2.969,5.98
			C2.958,5.977,2.947,5.974,2.936,5.971C2.918,5.966,2.9,5.962,2.882,5.958C2.875,5.957,2.868,5.956,2.861,5.954
			c-0.003,0-0.006-0.001-0.008-0.002c-0.029-0.005-0.058-0.01-0.085-0.014c-0.003,0-0.006,0-0.009-0.001
			C2.75,5.936,2.74,5.936,2.731,5.934C2.713,5.933,2.696,5.93,2.679,5.929c-0.007,0-0.014,0-0.021,0
			c-0.013-0.001-0.026-0.001-0.04-0.001c-0.011,0-0.022-0.001-0.033-0.001c-0.018,0-0.035,0-0.052,0.001
			c-0.017,0-0.033,0.001-0.049,0.003c-0.004,0-0.008,0.001-0.013,0.002C2.438,5.936,2.405,5.94,2.374,5.946
			c-0.001,0-0.002,0-0.003,0c0,0,0,0,0,0c-0.043,0.008-0.085,0.02-0.126,0.034C2.239,5.982,2.235,5.982,2.232,5.984
			C2.227,5.986,2.221,5.988,2.215,5.99C2.19,5.999,2.167,6.009,2.143,6.02C2.117,6.032,2.091,6.045,2.066,6.06L0.628,6.896
			c0.025-0.015,0.05-0.028,0.077-0.04c0.023-0.011,0.048-0.021,0.072-0.03c0.009-0.003,0.019-0.006,0.028-0.009
			c0.041-0.014,0.083-0.026,0.126-0.034c0.001,0,0.002,0,0.004-0.001C0.968,6.775,1,6.771,1.033,6.768
			c0.021-0.002,0.041-0.004,0.062-0.005c0.028-0.001,0.056,0,0.085,0c0.013,0,0.026,0,0.04,0.001
			C1.244,6.765,1.269,6.767,1.293,6.77z"/>
		<path fill="#F26E6E" d="M10.995,25.377c0.473,0.273,0.901,0.885,1.002,1.475c0.146,0.847-0.354,1.231-0.99,0.864l-1.5-0.865
			c-0.474-0.273-0.901-0.885-1.003-1.476c-0.146-0.846,0.355-1.231,0.991-0.864L10.995,25.377z"/>
		<path fill="#F26E6E" d="M21.871,31.715c0.474,0.273,0.901,0.885,1.003,1.475c0.146,0.847-0.354,1.231-0.99,0.864l-1.5-0.865
			c-0.474-0.273-0.901-0.885-1.003-1.476c-0.146-0.846,0.355-1.231,0.991-0.864L21.871,31.715z"/>
		<path fill="#F26E6E" d="M16.416,28.487c0.473,0.273,0.901,0.885,1.002,1.475c0.146,0.847-0.354,1.232-0.99,0.865l-1.5-0.866
			c-0.474-0.273-0.901-0.885-1.003-1.476c-0.146-0.846,0.354-1.231,0.99-0.864L16.416,28.487z"/>
		<path fill="#F26E6E" d="M5.484,22.178c0.473,0.273,0.901,0.885,1.003,1.475c0.146,0.847-0.354,1.231-0.99,0.864l-1.5-0.865
			c-0.474-0.273-0.901-0.885-1.003-1.476c-0.146-0.846,0.355-1.231,0.991-0.864L5.484,22.178z"/>
		<path fill="#FFCF4E" d="M20.424,21.158c-0.677-0.391-1.292-0.434-1.742-0.188c-0.462,0.252-0.75,0.81-0.751,1.61
			c-0.002,0.799,0.281,1.687,0.74,2.47c0.447,0.765,1.06,1.43,1.737,1.821c1.373,0.793,2.489,0.156,2.494-1.421
			C22.907,23.872,21.798,21.95,20.424,21.158z"/>
	</g>
</g>
</svg>
