<?xml version="1.0" encoding="utf-8"?>
<!-- Generator: Adobe Illustrator 16.0.0, SVG Export Plug-In . SVG Version: 6.00 Build 0)  -->
<!DOCTYPE svg PUBLIC "-//W3C//DTD SVG 1.1//EN" "http://www.w3.org/Graphics/SVG/1.1/DTD/svg11.dtd">
<svg version="1.1" id="Layer_1" xmlns="http://www.w3.org/2000/svg" xmlns:xlink="http://www.w3.org/1999/xlink" x="0px" y="0px"
	 width="40px" height="45px" viewBox="0 0 40 45" enable-background="new 0 0 40 45" xml:space="preserve">
<g>
	<polygon opacity="0.4" fill="#A8AAAC" enable-background="new    " points="17.709,36.391 16.13,45 20.889,44.774 35.557,36.326 
		23.111,27.925 	"/>
	<g>
		<g>
			<g>
				<polygon fill="#D7CBBB" points="6.102,39.228 16.13,45 16.13,37.826 6.102,32.061 				"/>
			</g>
			<g>
				<polygon fill="#709BB8" points="7.095,34.706 7.066,38.394 9.533,39.825 9.533,36.162 				"/>
				<polygon fill="#FFFFFF" points="7.066,38.391 7.066,38.396 6.815,38.605 9.533,40.186 9.533,39.825 				"/>
				<polygon fill="#E6E6E5" points="7.089,35.024 7.098,34.71 7.099,34.701 6.832,34.548 6.815,38.605 7.066,38.396 7.066,38.391 
									"/>
			</g>
			<g>
				<polygon fill="#709BB8" points="9.962,36.367 9.932,40.061 12.396,41.492 12.396,37.826 				"/>
				<polygon fill="#FFFFFF" points="9.932,40.057 9.932,40.061 9.681,40.27 12.396,41.851 12.396,41.492 				"/>
				<polygon fill="#E6E6E5" points="9.953,36.691 9.962,36.377 9.962,36.367 9.695,36.213 9.681,40.27 9.932,40.061 9.932,40.057 
									"/>
			</g>
			<g>
				<polygon fill="#709BB8" points="12.826,38.032 12.794,41.723 15.261,43.156 15.261,39.491 				"/>
				<polygon fill="#FFFFFF" points="12.796,41.72 12.796,41.725 12.547,41.935 15.261,43.517 15.261,43.156 				"/>
				<polygon fill="#E6E6E5" points="12.818,38.355 12.825,38.041 12.826,38.032 12.559,37.88 12.543,41.935 12.796,41.725 
					12.796,41.72 				"/>
			</g>
			<g>
				<path fill="#AE9F8C" d="M16.13,37.826v7.166l13.65-7.964v-7.166L16.13,37.826z"/>
			</g>
			<g>
				<polygon fill="#3D576A" points="27.314,33.774 27.314,38.131 24.852,39.565 24.852,35.233 				"/>
				<polygon fill="#FFFFFF" points="27.314,38.131 27.314,38.134 27.58,38.345 24.852,39.926 24.852,39.565 				"/>
				<polygon fill="#E6E6E5" points="27.314,34.1 27.314,33.785 27.314,33.774 27.58,33.621 27.58,38.345 27.314,38.134 
					27.314,38.131 				"/>
			</g>
			<g>
				<polygon fill="#3D576A" points="19.104,38.032 19.124,41.72 16.659,43.156 16.659,39.491 				"/>
				<polygon fill="#FFFFFF" points="19.124,41.72 19.124,41.725 19.381,41.935 16.659,43.517 16.659,43.156 				"/>
				<polygon fill="#E6E6E5" points="19.109,38.355 19.104,38.041 19.104,38.032 19.372,37.88 19.381,41.935 19.124,41.725 
					19.124,41.72 				"/>
			</g>
			<g>
				<polygon fill="#3D576A" points="22.102,36.434 22.12,40.057 19.656,41.492 19.656,37.892 				"/>
				<polygon fill="#FFFFFF" points="22.12,40.057 22.12,40.061 22.38,40.269 19.656,41.851 19.656,41.492 				"/>
				<polygon fill="#E6E6E5" points="22.105,36.756 22.101,36.443 22.102,36.434 22.371,36.281 22.38,40.27 22.12,40.061 
					22.12,40.057 				"/>
			</g>
			<g>
				<g opacity="0.7">
					<path fill="#C7C7C6" d="M16.13,39.403v1.931l13.617-7.839v-1.927L16.13,39.403z"/>
				</g>
				<g opacity="0.7">
					<path fill="#C7C7C6" d="M6.077,33.515v1.93l10.053,5.89v-1.931L6.077,33.515z"/>
				</g>
			</g>
			<g>
				<polygon fill="#FFFFFF" points="12.705,38.479 11.208,37.617 11.975,37.177 13.461,38.039 				"/>
			</g>
			<g>
				<polygon fill="#FFFFFF" points="7.911,35.74 6.416,34.877 7.181,34.438 8.667,35.301 				"/>
			</g>
			<g>
				<polygon fill="#D1D5DE" points="22.729,41.104 23.487,41.539 23.487,36.156 22.729,35.716 				"/>
				<polygon fill="#B3B7BF" points="23.487,41.539 24.98,40.676 24.98,35.291 23.487,36.156 				"/>
			</g>
			<g>
				<polygon fill="#D1D5DE" points="27.521,38.366 28.279,38.801 28.279,33.415 27.521,32.977 				"/>
				<polygon fill="#B3B7BF" points="28.279,38.801 29.773,37.938 29.773,32.555 28.279,33.415 				"/>
			</g>
			<g>
				<polygon fill="#FFFFFF" points="31.899,30.568 20.376,23.813 4.443,33.037 16.124,39.818 				"/>
				<g>
					<path fill="#D1D5DE" d="M4.443,33.037v0.693l11.687,6.78v-0.692L4.443,33.037z"/>
					<polygon fill="#B3B7BF" points="31.899,31.258 31.89,30.577 16.13,39.818 16.13,40.511 					"/>
				</g>
			</g>
		</g>
		<polygon fill="#FFFFFF" points="16.108,15.928 30.101,7.74 20.508,2.456 6.525,10.221 		"/>
		<g>
			<polygon fill="#ECECEC" points="28.752,8.153 20.475,3.151 7.801,10.492 16.085,15.464 			"/>
		</g>
		<g>
			<polygon fill="#D7CBBB" points="6.545,10.182 16.108,15.928 16.101,38.673 6.37,33.022 			"/>
		</g>
		<g>
			<polygon fill="#AE9F8C" points="16.081,38.71 30.055,30.54 30.101,7.74 16.108,15.923 			"/>
		</g>
		<g>
			<polygon fill="#445F74" points="16.125,17.627 16.125,17.635 16.125,37.988 16.743,37.635 18.99,36.34 21.013,14.795 			"/>
			<polygon fill="#3D576A" points="22.274,14.084 21.063,14.767 21.013,14.795 18.99,36.34 22.283,34.442 			"/>
			<polygon fill="#729FBD" points="11.782,15.148 11.777,35.471 13.236,36.316 15.023,17.005 			"/>
			<polygon fill="#6B97B4" points="15.023,17.005 13.236,36.316 16.125,37.988 16.125,17.635 			"/>
		</g>
		<g>
			<polygon fill="#E6E6E5" points="21.978,14.248 21.598,14.461 21.6,33.89 16.105,37.055 16.105,37.503 21.598,34.337 
				21.978,34.126 			"/>
		</g>
		<g>
			<polygon fill="#C4BFBF" points="22.274,14.084 21.978,14.248 21.978,34.126 21.598,34.337 16.105,37.503 16.105,37.988 
				21.598,34.823 21.978,34.609 22.276,34.442 			"/>
		</g>
		<g>
			<polygon fill="#FFFFFF" points="11.895,34.635 11.895,15.213 11.517,14.993 11.515,34.859 11.895,35.082 16.102,37.503 
				16.102,37.055 			"/>
		</g>
		<polygon fill="#F7F1F1" points="11.895,35.082 11.515,34.859 11.517,14.993 11.22,14.819 11.218,35.174 11.517,35.346 
			11.895,35.564 16.102,37.988 16.102,37.503 		"/>
		<g>
			<g>
				<polygon fill="#FFFFFF" points="30.002,7.039 31.155,6.37 20.134,0 5.454,8.579 6.61,9.246 16.493,14.951 				"/>
				<polygon fill="#C3C7CF" points="16.53,13.799 28.218,6.945 28.321,6.885 20.092,2.13 8.29,9.045 8.395,9.104 				"/>
				<g>
					<polygon fill="#D1D5DE" points="5.447,8.579 5.447,9.916 16.493,16.287 16.493,14.951 					"/>
					<polygon fill="#B3B7BF" points="31.155,7.708 31.146,6.384 16.493,14.951 16.493,14.951 16.493,16.287 16.493,16.287 					"/>
				</g>
				<g>
					<polygon fill="#B3B7BF" points="7.441,8.556 8.29,9.045 20.092,2.132 20.092,1.152 					"/>
					<polygon fill="#D1D5DE" points="20.092,1.151 20.092,1.152 20.092,2.132 20.092,2.13 28.321,6.885 29.165,6.396 					"/>
				</g>
			</g>
			<g>
				<polygon opacity="0.4" fill="#A8AAAC" enable-background="new    " points="18.319,8.451 17.733,10.901 20.589,10.934 
					22.345,10.001 18.656,7.911 				"/>
				<g>
					<polygon fill="#FFFFFF" points="17.71,10.271 13.239,7.687 15.8,6.202 20.276,8.789 					"/>
					<polygon fill="#B3B7BF" points="20.276,9.395 17.71,10.89 17.71,10.271 20.276,8.789 					"/>
					<polygon fill="#D1D5DE" points="17.71,10.89 13.239,8.304 13.239,7.687 17.71,10.271 					"/>
				</g>
				<polygon opacity="0.4" fill="#A8AAAC" enable-background="new    " points="17.758,8.112 17.397,9.63 18.612,9.586 
					19.893,8.856 17.959,7.775 				"/>
				<g>
					<polygon fill="#FFFFFF" points="17.375,9.102 14.475,7.427 15.96,6.586 18.858,8.258 					"/>
					<polygon fill="#B3B7BF" points="18.858,8.789 17.375,9.63 17.375,9.102 18.858,8.258 					"/>
					<polygon fill="#D1D5DE" points="17.375,9.63 14.475,7.956 14.475,7.427 17.375,9.102 					"/>
				</g>
			</g>
		</g>
		<g>
			<g>
				<g>
					<polygon fill="#3D576A" points="26.708,13.67 29.169,12.295 29.165,11.012 26.708,12.386 					"/>
				</g>
				<g>
					<polygon fill="#3D576A" points="23.226,15.602 25.687,14.227 25.684,12.939 23.226,14.317 					"/>
				</g>
				<g>
					<g>
						<polygon fill="#E6E6E5" points="26.708,13.226 26.708,13.67 29.169,12.295 29.165,11.012 28.791,11.22 28.793,12.062 						
							"/>
					</g>
					<g>
						<polygon fill="#E6E6E5" points="23.226,15.156 23.226,15.602 25.687,14.227 25.684,12.939 25.309,13.151 25.309,13.992 						
							"/>
					</g>
				</g>
			</g>
			<g>
				<g>
					<polygon fill="#3D576A" points="23.226,18.506 25.687,17.129 25.684,15.843 23.226,17.222 					"/>
				</g>
				<g>
					<g>
						<g>
							<polygon fill="#3D576A" points="26.708,16.573 29.169,15.2 29.165,13.914 26.708,15.291 							"/>
						</g>
						<g>
							<polygon fill="#E6E6E5" points="28.791,14.125 28.793,14.964 26.708,16.129 26.708,16.573 29.169,15.2 29.165,13.914 							
								"/>
						</g>
					</g>
					<g>
						<polygon fill="#E6E6E5" points="25.309,16.055 25.309,16.896 23.226,18.062 23.226,18.506 25.687,17.129 25.684,15.843 						
							"/>
					</g>
				</g>
			</g>
			<g>
				<g>
					<g>
						<g>
							<polygon fill="#3D576A" points="26.708,19.477 29.169,18.104 29.165,16.817 26.708,18.193 							"/>
						</g>
						<g>
							<polygon fill="#E6E6E5" points="28.791,17.028 28.793,17.869 26.708,19.033 26.708,19.477 29.169,18.104 29.165,16.817 
															"/>
						</g>
					</g>
					<g>
						<polygon fill="#3D576A" points="23.226,21.41 25.687,20.033 25.684,18.747 23.226,20.122 						"/>
					</g>
				</g>
				<g>
					<polygon fill="#E6E6E5" points="25.309,18.959 25.309,19.8 23.226,20.963 23.226,21.41 25.687,20.033 25.684,18.747 					"/>
				</g>
			</g>
			<g>
				<g>
					<g>
						<g>
							<polygon fill="#3D576A" points="26.708,22.385 29.169,21.01 29.165,19.723 26.708,21.1 							"/>
						</g>
						<g>
							<polygon fill="#E6E6E5" points="28.791,19.932 28.793,20.771 26.708,21.938 26.708,22.385 29.169,21.01 29.165,19.723 
															"/>
						</g>
					</g>
					<g>
						<polygon fill="#3D576A" points="23.226,24.311 25.687,22.939 25.684,21.652 23.226,23.03 						"/>
					</g>
				</g>
				<g>
					<polygon fill="#E6E6E5" points="25.309,21.865 25.309,22.703 23.226,23.869 23.226,24.311 25.687,22.939 25.684,21.652 					
						"/>
				</g>
			</g>
			<g>
				<g>
					<g>
						<g>
							<polygon fill="#3D576A" points="26.708,25.321 29.169,23.943 29.165,22.661 26.708,24.035 							"/>
						</g>
						<g>
							<polygon fill="#E6E6E5" points="26.708,24.875 26.708,25.321 29.169,23.943 29.165,22.661 28.791,22.87 28.793,23.71 							
								"/>
						</g>
					</g>
					<g>
						<polygon fill="#3D576A" points="23.226,27.183 25.687,25.807 25.684,24.523 23.226,25.899 						"/>
					</g>
				</g>
				<g>
					<polygon fill="#E6E6E5" points="23.226,26.738 23.226,27.183 25.687,25.807 25.684,24.523 25.309,24.73 25.309,25.572 					"/>
				</g>
			</g>
			<g>
				<g>
					<g>
						<g>
							<polygon fill="#3D576A" points="26.708,28.224 29.169,26.85 29.165,25.565 26.708,26.938 							"/>
						</g>
						<g>
							<polygon fill="#E6E6E5" points="28.791,25.773 28.793,26.611 26.708,27.78 26.708,28.224 29.169,26.85 29.165,25.565 							
								"/>
						</g>
					</g>
					<g>
						<polygon fill="#3D576A" points="23.226,30.086 25.687,28.709 25.684,27.425 23.226,28.802 						"/>
					</g>
				</g>
				<g>
					<polygon fill="#E6E6E5" points="25.309,27.635 25.309,28.477 23.226,29.641 23.226,30.086 25.687,28.709 25.684,27.425 					
						"/>
				</g>
			</g>
			<g>
				<g>
					<g>
						<g>
							<polygon fill="#3D576A" points="26.708,31.129 29.169,29.751 29.165,28.468 26.708,29.844 							"/>
						</g>
						<g>
							<polygon fill="#E6E6E5" points="28.791,28.68 28.793,29.518 26.708,30.683 26.708,31.129 29.169,29.751 29.165,28.468 
															"/>
						</g>
					</g>
					<g>
						<polygon fill="#3D576A" points="23.226,32.991 25.687,31.614 25.684,30.331 23.226,31.709 						"/>
					</g>
				</g>
				<g>
					<polygon fill="#E6E6E5" points="25.309,30.542 25.309,31.381 23.226,32.546 23.226,32.991 25.687,31.614 25.684,30.331 					
						"/>
				</g>
			</g>
		</g>
		<g>
			<g>
				<g>
					<polygon fill="#729FBD" points="10.055,16.16 7.597,14.787 7.598,13.499 10.055,14.875 					"/>
				</g>
				<g>
					<g>
						<polygon fill="#FFFFFF" points="10.055,15.716 10.055,16.16 7.597,14.787 7.598,13.499 7.972,13.712 7.972,14.552 						"/>
					</g>
				</g>
			</g>
			<g>
				<g>
					<polygon fill="#729FBD" points="10.055,19.064 7.597,17.688 7.598,16.405 10.055,17.781 					"/>
				</g>
				<g>
					<g>
						<polygon fill="#FFFFFF" points="7.972,16.615 7.972,17.456 10.055,18.621 10.055,19.064 7.597,17.688 7.598,16.405 						"/>
					</g>
				</g>
			</g>
			<g>
				<g>
					<g>
						<polygon fill="#729FBD" points="10.055,21.969 7.597,20.594 7.598,19.306 10.055,20.682 						"/>
					</g>
				</g>
				<g>
					<polygon fill="#FFFFFF" points="7.972,19.519 7.972,20.361 10.055,21.521 10.055,21.969 7.597,20.594 7.598,19.306 					"/>
				</g>
			</g>
			<g>
				<g>
					<g>
						<polygon fill="#729FBD" points="10.055,24.871 7.597,23.498 7.598,22.212 10.055,23.588 						"/>
					</g>
				</g>
				<g>
					<polygon fill="#FFFFFF" points="7.972,22.425 7.972,23.263 10.055,24.427 10.055,24.871 7.597,23.498 7.598,22.212 					"/>
				</g>
			</g>
			<g>
				<g>
					<g>
						<polygon fill="#729FBD" points="10.055,27.742 7.597,26.365 7.598,25.082 10.055,26.457 						"/>
					</g>
				</g>
				<g>
					<polygon fill="#FFFFFF" points="10.055,27.299 10.055,27.742 7.597,26.365 7.598,25.082 7.972,25.291 7.972,26.132 					"/>
				</g>
			</g>
			<g>
				<g>
					<g>
						<polygon fill="#729FBD" points="10.055,30.646 7.597,29.27 7.598,27.985 10.055,29.362 						"/>
					</g>
				</g>
				<g>
					<polygon fill="#FFFFFF" points="7.972,28.195 7.972,29.035 10.055,30.201 10.055,30.646 7.597,29.27 7.598,27.985 					"/>
				</g>
			</g>
			<g>
				<g>
					<g>
						<polygon fill="#729FBD" points="10.055,33.55 7.597,32.177 7.598,30.889 10.055,32.267 						"/>
					</g>
				</g>
				<g>
					<polygon fill="#FFFFFF" points="7.972,31.103 7.972,31.939 10.055,33.105 10.055,33.55 7.597,32.177 7.598,30.889 					"/>
				</g>
			</g>
		</g>
		<g>
			<g>
				<polygon fill="#7C91A0" points="21.594,17.331 16.125,20.454 16.125,20.679 21.594,17.557 				"/>
				<polygon fill="#9BBFD9" points="11.895,18.037 11.895,18.261 16.13,20.679 16.13,20.454 				"/>
			</g>
			<g>
				<polygon fill="#7C91A0" points="21.594,20.082 16.125,23.203 16.125,23.428 21.594,20.305 				"/>
				<polygon fill="#9BBFD9" points="11.895,20.785 11.895,21.01 16.13,23.428 16.13,23.201 				"/>
			</g>
			<g>
				<polygon fill="#7C91A0" points="21.594,22.828 16.125,25.949 16.125,26.176 21.594,23.054 				"/>
				<polygon fill="#9BBFD9" points="11.895,23.534 11.895,23.759 16.13,26.176 16.13,25.949 				"/>
			</g>
			<g>
				<polygon fill="#7C91A0" points="21.594,25.576 16.125,28.698 16.125,28.925 21.594,25.803 				"/>
				<polygon fill="#9BBFD9" points="11.895,26.281 11.895,26.508 16.13,28.923 16.13,28.698 				"/>
			</g>
			<g>
				<polygon fill="#7C91A0" points="21.594,28.327 16.125,31.447 16.125,31.672 21.594,28.551 				"/>
				<polygon fill="#9BBFD9" points="11.895,29.032 11.895,29.254 16.13,31.672 16.13,31.447 				"/>
			</g>
			<g>
				<polygon fill="#7C91A0" points="21.594,31.075 16.125,34.196 16.125,34.422 21.594,31.3 				"/>
				<polygon fill="#9BBFD9" points="11.895,31.778 11.895,32.003 16.13,34.422 16.13,34.196 				"/>
			</g>
		</g>
	</g>
</g>
</svg>
