<?xml version="1.0" encoding="utf-8"?>
<!-- Generator: Adobe Illustrator 16.0.0, SVG Export Plug-In . SVG Version: 6.00 Build 0)  -->
<!DOCTYPE svg PUBLIC "-//W3C//DTD SVG 1.1//EN" "http://www.w3.org/Graphics/SVG/1.1/DTD/svg11.dtd">
<svg version="1.1" id="Layer_1" xmlns="http://www.w3.org/2000/svg" xmlns:xlink="http://www.w3.org/1999/xlink" x="0px" y="0px"
	 width="40px" height="42px" viewBox="0 0 40 42" enable-background="new 0 0 40 42" xml:space="preserve">
<g>
	<polygon fill="#5E5F5F" points="31.445,41.447 3.115,37.492 0,36.671 0.732,34.713 32.537,3.52 34.229,3.698 	"/>
	<g>
		<g>
			
				<rect x="4.954" y="2.164" transform="matrix(0.9945 0.1045 -0.1045 0.9945 2.2422 -1.8392)" fill="#E8E8E8" width="27.435" height="36.626"/>
		</g>
		<g>
			<g>
				<path fill="#9CB2BE" d="M20.925,3.144c-0.744-0.078-1.41,0.461-1.489,1.206c-0.078,0.744,0.462,1.412,1.206,1.489
					c0.745,0.078,1.413-0.462,1.491-1.207C22.211,3.888,21.67,3.222,20.925,3.144z M20.671,5.56
					c-0.589-0.063-1.017-0.591-0.955-1.181c0.062-0.59,0.591-1.018,1.18-0.956c0.59,0.063,1.018,0.591,0.957,1.181
					C21.791,5.194,21.262,5.621,20.671,5.56z"/>
			</g>
			<g>
				<path fill="#9CB2BE" d="M20.84,3.966l-0.774-0.08c0.082,0.373,0.103,0.725,0.067,1.056c0.204,0.068,0.389,0.207,0.562,0.394
					c0.208-0.147,0.419-0.245,0.63-0.269c0.035-0.331,0.129-0.671,0.286-1.019L20.84,3.966z"/>
			</g>
		</g>
		<g>
			<path fill="#9CB2BE" d="M28.768,8.778L12.085,7.025c-0.273-0.03-0.472-0.274-0.443-0.547v-0.01
				c0.029-0.274,0.274-0.471,0.548-0.442l16.683,1.752c0.273,0.029,0.471,0.273,0.443,0.547l-0.002,0.009
				C29.287,8.607,29.041,8.806,28.768,8.778z"/>
		</g>
		<g>
			<path fill="#9CB2BE" d="M31.188,12.475L8.017,10.04c-0.128-0.013-0.22-0.127-0.207-0.254V9.781
				c0.014-0.127,0.128-0.22,0.255-0.207l23.171,2.435c0.127,0.012,0.221,0.127,0.207,0.255v0.003
				C31.43,12.396,31.316,12.488,31.188,12.475z"/>
		</g>
		<g>
			<path fill="#9CB2BE" d="M24.832,13.274L7.864,11.492c-0.128-0.013-0.22-0.129-0.206-0.256v-0.004
				c0.013-0.128,0.128-0.22,0.255-0.206l16.968,1.783c0.127,0.014,0.219,0.128,0.205,0.255v0.005
				C25.072,13.195,24.959,13.287,24.832,13.274z"/>
		</g>
		<g>
			<path fill="#9CB2BE" d="M28.488,15.125L7.71,12.943c-0.127-0.015-0.218-0.129-0.206-0.256v-0.005
				c0.014-0.127,0.128-0.219,0.255-0.206l20.777,2.183c0.127,0.015,0.221,0.128,0.207,0.256l-0.002,0.005
				C28.73,15.047,28.615,15.14,28.488,15.125z"/>
		</g>
		<g>
			<path fill="#9CB2BE" d="M26.857,16.422L7.559,14.393c-0.127-0.013-0.22-0.127-0.206-0.254v-0.005
				c0.013-0.128,0.128-0.22,0.255-0.208l19.301,2.028c0.127,0.015,0.219,0.128,0.207,0.256v0.005
				C27.102,16.343,26.986,16.435,26.857,16.422z"/>
		</g>
		<g>
			<path fill="#9CB2BE" d="M29,18.114l-21.594-2.27c-0.127-0.013-0.22-0.127-0.206-0.255v-0.005
				c0.012-0.128,0.127-0.219,0.254-0.206l21.594,2.269c0.129,0.012,0.221,0.126,0.207,0.253v0.005
				C29.242,18.034,29.129,18.127,29,18.114z"/>
		</g>
		<g>
			<path fill="#9CB2BE" d="M19.521,20.802L7.023,19.489c-0.127-0.013-0.22-0.128-0.207-0.255v-0.004
				c0.014-0.127,0.128-0.22,0.255-0.208l12.5,1.314c0.127,0.013,0.219,0.128,0.206,0.255v0.004
				C19.764,20.722,19.649,20.815,19.521,20.802z"/>
		</g>
		<g>
			<path fill="#9CB2BE" d="M26.404,22.991L6.87,20.939c-0.127-0.013-0.219-0.127-0.206-0.255v-0.003
				c0.014-0.129,0.128-0.221,0.254-0.208l19.534,2.052c0.127,0.014,0.221,0.129,0.207,0.257v0.004
				C26.646,22.913,26.531,23.007,26.404,22.991z"/>
		</g>
		<g>
			<path fill="#9CB2BE" d="M29.889,24.826l-23.17-2.435c-0.127-0.015-0.22-0.128-0.206-0.256V22.13
				c0.013-0.127,0.128-0.219,0.255-0.205l23.172,2.435c0.127,0.014,0.219,0.128,0.207,0.255v0.006
				C30.133,24.747,30.018,24.84,29.889,24.826z"/>
		</g>
		<g>
			<path fill="#9CB2BE" d="M28.158,26.111L6.566,23.843c-0.127-0.014-0.22-0.129-0.206-0.256v-0.006
				c0.012-0.125,0.127-0.219,0.254-0.206l21.592,2.27c0.129,0.014,0.223,0.128,0.209,0.256l-0.002,0.005
				C28.4,26.032,28.287,26.125,28.158,26.111z"/>
		</g>
		<g>
			<path fill="#9CB2BE" d="M24.703,27.215L6.413,25.293c-0.127-0.013-0.219-0.127-0.206-0.254v-0.005
				c0.014-0.129,0.128-0.222,0.257-0.208l18.289,1.924c0.127,0.012,0.221,0.127,0.207,0.254v0.005
				C24.945,27.136,24.83,27.229,24.703,27.215z"/>
		</g>
		<g>
			<path fill="#9CB2BE" d="M27.854,29.015L6.26,26.743c-0.127-0.013-0.22-0.126-0.206-0.253v-0.005
				c0.014-0.129,0.128-0.223,0.257-0.206l21.591,2.269c0.129,0.012,0.221,0.127,0.207,0.254v0.005
				C28.096,28.936,27.982,29.026,27.854,29.015z"/>
		</g>
		<g>
			<path fill="#9CB2BE" d="M20.306,19.037l-2.077-0.218c-0.149-0.017-0.256-0.151-0.241-0.298v-0.006
				c0.017-0.149,0.149-0.256,0.299-0.241l2.076,0.219c0.149,0.015,0.257,0.149,0.241,0.298l-0.001,0.004
				C20.587,18.944,20.455,19.051,20.306,19.037z"/>
		</g>
		<g>
			<g>
				<path fill="#9CB2BE" d="M25.01,31.257c-1.719-0.182-3.256,1.064-3.437,2.78c-0.181,1.719,1.065,3.258,2.782,3.438
					c1.719,0.18,3.256-1.064,3.438-2.783C27.973,32.975,26.727,31.438,25.01,31.257z M24.4,37.057
					c-1.487-0.156-2.566-1.487-2.41-2.974c0.156-1.487,1.49-2.565,2.975-2.409c1.488,0.156,2.566,1.489,2.41,2.974
					C27.219,36.134,25.887,37.213,24.4,37.057z"/>
			</g>
			<g>
				<g>
					<path fill="#9CB2BE" d="M24.896,32.331c-1.123-0.118-2.129,0.695-2.246,1.82c-0.119,1.124,0.695,2.13,1.818,2.248
						s2.131-0.698,2.248-1.82C26.836,33.455,26.02,32.448,24.896,32.331z M24.502,36.08c-0.947-0.098-1.635-0.947-1.536-1.896
						c0.102-0.947,0.948-1.636,1.897-1.534c0.947,0.1,1.635,0.947,1.535,1.895C26.301,35.493,25.451,36.18,24.502,36.08z"/>
				</g>
			</g>
			<g>
				<g>
					<path fill="#9CB2BE" d="M26.777,35.69l-0.166-0.104c-0.221,0.347-0.529,0.628-0.895,0.813l0.088,0.175
						C26.201,36.372,26.537,36.066,26.777,35.69z"/>
				</g>
				<g>
					<path fill="#9CB2BE" d="M22.412,34.126l-0.193-0.021c-0.083,0.784,0.211,1.521,0.734,2.033l0.137-0.141
						C22.607,35.526,22.338,34.849,22.412,34.126z"/>
				</g>
				<g>
					<path fill="#9CB2BE" d="M22.998,32.827l-0.145-0.132c-0.086,0.096-0.164,0.195-0.236,0.304l0.162,0.107
						C22.846,33.006,22.917,32.913,22.998,32.827z"/>
				</g>
				<g>
					<path fill="#9CB2BE" d="M24.443,36.635c-0.281-0.029-0.545-0.108-0.785-0.23l-0.088,0.177c0.262,0.129,0.547,0.217,0.855,0.249
						c0.188,0.019,0.371,0.019,0.553-0.005l-0.023-0.192C24.789,36.651,24.619,36.653,24.443,36.635z"/>
				</g>
				<g>
					<path fill="#9CB2BE" d="M24.922,32.095c0.303,0.032,0.584,0.123,0.838,0.259l0.094-0.172c-0.275-0.15-0.582-0.247-0.912-0.281
						c-0.258-0.027-0.508-0.014-0.75,0.036l0.039,0.19C24.453,32.084,24.684,32.07,24.922,32.095z"/>
				</g>
				<g>
					<path fill="#9CB2BE" d="M26.73,33.355l0.174-0.089c-0.066-0.131-0.145-0.258-0.23-0.376l-0.156,0.115
						C26.596,33.115,26.668,33.233,26.73,33.355z"/>
				</g>
				<g>
					<path fill="#9CB2BE" d="M26.955,34.604c-0.021,0.174-0.059,0.345-0.113,0.505l0.184,0.063c0.063-0.174,0.102-0.357,0.121-0.548
						c0.035-0.324,0.006-0.642-0.078-0.935l-0.189,0.053C26.955,34.015,26.984,34.308,26.955,34.604z"/>
				</g>
				<g>
					<path fill="#9CB2BE" d="M23.632,32.34l-0.09-0.175c-0.118,0.062-0.229,0.134-0.337,0.211l0.116,0.159
						C23.421,32.462,23.523,32.396,23.632,32.34z"/>
				</g>
			</g>
			<g>
				<g>
					<path fill="#9CB2BE" d="M25.738,34.835c0.176-0.392,0.117-0.856-0.154-1.191c-0.271-0.336-0.715-0.49-1.135-0.397l-0.221-0.273
						c0.58-0.195,1.217-0.014,1.605,0.467s0.438,1.143,0.125,1.67L25.738,34.835z"/>
				</g>
				<g>
					<path fill="#9CB2BE" d="M23.556,35.286c-0.389-0.48-0.435-1.142-0.124-1.668l0.223,0.274c-0.178,0.39-0.119,0.854,0.152,1.189
						c0.271,0.336,0.715,0.49,1.135,0.397l0.221,0.273C24.584,35.948,23.945,35.765,23.556,35.286z"/>
				</g>
			</g>
		</g>
		<g>
			<path fill="#9CB2BE" d="M13.886,34.713c-0.004,0-0.007,0-0.01,0l-7.101-0.745c-0.05-0.007-0.086-0.053-0.082-0.101
				c0.006-0.052,0.05-0.088,0.102-0.081l7.1,0.745c0.05,0.005,0.085,0.051,0.081,0.101C13.971,34.679,13.931,34.713,13.886,34.713z"
				/>
		</g>
		<g>
			<path fill="#313B3F" d="M7.002,35.18c-0.1,0-0.19-0.04-0.267-0.122L6.73,35.051c-0.139-0.179-0.16-0.39-0.058-0.609
				c0.241-0.526,1.148-1.059,1.89-1.306c0.712-1.074,1.508-2.237,2.319-2.56c0.046-0.021,0.101,0.005,0.118,0.05
				c0.019,0.048-0.004,0.1-0.051,0.12c-0.717,0.284-1.45,1.313-2.116,2.31c0.141-0.033,0.27-0.054,0.379-0.061
				c0.063-0.002,0.122,0.027,0.158,0.079c0.037,0.052,0.046,0.118,0.022,0.175c-0.042,0.102-0.103,0.197-0.163,0.288
				c-0.059,0.088-0.113,0.17-0.13,0.233c-0.002,0.007,0.001,0.014,0.004,0.016c0.003,0.004,0.009,0.004,0.015,0.004
				c0.22-0.026,0.558-0.265,0.854-0.471c0.234-0.166,0.456-0.32,0.618-0.374c0.055-0.021,0.115-0.003,0.154,0.041
				c0.038,0.045,0.045,0.106,0.02,0.158c-0.041,0.082-0.115,0.182-0.184,0.278c-0.061,0.087-0.158,0.221-0.185,0.288
				c0.118-0.004,0.339-0.122,0.52-0.218c0.26-0.138,0.425-0.22,0.545-0.201c0.076,0.014,0.105,0.052,0.116,0.084
				c0.029,0.081-0.032,0.151-0.101,0.23c-0.031,0.034-0.099,0.114-0.104,0.147c0.117,0.012,0.204-0.033,0.323-0.093
				c0.148-0.074,0.331-0.168,0.632-0.179c0.078-0.002,0.151,0.036,0.193,0.102c0.04,0.066,0.042,0.147,0.004,0.216
				c-0.04,0.07-0.1,0.201-0.047,0.265c0.072,0.089,0.376,0.106,0.822-0.031c0.047-0.014,0.099,0.011,0.113,0.062
				c0.015,0.047-0.012,0.097-0.06,0.113c-0.239,0.074-0.817,0.217-1.017-0.027c-0.092-0.111-0.083-0.27,0.029-0.472
				c0.007-0.014,0.003-0.022,0-0.029c-0.003-0.005-0.013-0.016-0.03-0.016c-0.262,0.009-0.418,0.088-0.558,0.158
				c-0.132,0.068-0.256,0.132-0.427,0.113c-0.062-0.007-0.115-0.043-0.142-0.095c-0.063-0.127,0.042-0.252,0.123-0.348
				c-0.093,0.037-0.226,0.104-0.331,0.161c-0.246,0.132-0.479,0.254-0.644,0.238c-0.088-0.012-0.123-0.062-0.137-0.089
				c-0.049-0.113,0.049-0.258,0.214-0.487c0.037-0.052,0.073-0.102,0.105-0.149c-0.129,0.068-0.292,0.182-0.461,0.3
				c-0.329,0.233-0.669,0.471-0.935,0.505c-0.067,0.009-0.131-0.016-0.175-0.065c-0.044-0.048-0.06-0.118-0.044-0.182
				c0.024-0.093,0.088-0.188,0.153-0.288c0.056-0.083,0.112-0.172,0.146-0.256l0-0.002c-0.147,0.007-0.336,0.048-0.544,0.113
				c-0.021,0.034-0.043,0.068-0.066,0.102c-0.645,0.978-1.155,1.748-1.577,1.784C7.023,35.18,7.012,35.18,7.002,35.18z M6.87,34.936
				c0.047,0.047,0.093,0.065,0.147,0.061c0.321-0.027,0.83-0.777,1.374-1.6c-0.646,0.256-1.361,0.702-1.552,1.119
				C6.766,34.675,6.776,34.811,6.87,34.936z"/>
		</g>
	</g>
	<g opacity="0.35">
		<polygon fill="#7B8B92" points="3.143,36.988 28.443,38.067 27.816,3.023 24.861,2.677 2.813,34.747 3.176,36.671 		"/>
	</g>
	<g>
		<rect y="0.044" fill="#E8E8E8" width="27.436" height="36.627"/>
	</g>
	<g>
		<g>
			<path fill="#9CB2BE" d="M13.733,0.884c-0.749,0-1.355,0.606-1.355,1.354c0,0.749,0.606,1.355,1.355,1.355
				s1.355-0.606,1.355-1.355C15.088,1.491,14.481,0.884,13.733,0.884z M13.733,3.313c-0.593,0-1.074-0.481-1.074-1.074
				s0.481-1.074,1.074-1.074s1.074,0.481,1.074,1.074S14.326,3.313,13.733,3.313z"/>
		</g>
		<g>
			<path fill="#9CB2BE" d="M13.733,1.712h-0.778c0.122,0.362,0.179,0.71,0.179,1.044c0.208,0.047,0.407,0.164,0.6,0.333
				c0.192-0.169,0.39-0.286,0.6-0.333c0-0.334,0.057-0.682,0.178-1.044H13.733z"/>
		</g>
	</g>
	<g>
		<path fill="#9CB2BE" d="M22.145,5.667H5.37c-0.275,0-0.498-0.222-0.498-0.498V5.16c0-0.274,0.222-0.498,0.498-0.498h16.774
			c0.275,0,0.498,0.224,0.498,0.498v0.01C22.643,5.445,22.42,5.667,22.145,5.667z"/>
	</g>
	<g>
		<path fill="#9CB2BE" d="M25.33,9.092H2.032c-0.129,0-0.234-0.104-0.234-0.233V8.855c0-0.128,0.105-0.233,0.234-0.233H25.33
			c0.127,0,0.232,0.105,0.232,0.233v0.004C25.563,8.988,25.457,9.092,25.33,9.092z"/>
	</g>
	<g>
		<path fill="#9CB2BE" d="M19.093,10.551H2.032c-0.129,0-0.234-0.104-0.234-0.233v-0.004c0-0.128,0.105-0.233,0.234-0.233h17.061
			c0.127,0,0.231,0.105,0.231,0.233v0.004C19.325,10.447,19.221,10.551,19.093,10.551z"/>
	</g>
	<g>
		<path fill="#9CB2BE" d="M22.924,12.01H2.032c-0.129,0-0.234-0.104-0.234-0.233v-0.004c0-0.128,0.105-0.233,0.234-0.233h20.892
			c0.127,0,0.232,0.104,0.232,0.233v0.004C23.156,11.906,23.051,12.01,22.924,12.01z"/>
	</g>
	<g>
		<path fill="#9CB2BE" d="M21.438,13.47H2.032c-0.129,0-0.234-0.104-0.234-0.233v-0.004C1.798,13.104,1.903,13,2.032,13h19.405
			c0.129,0,0.232,0.105,0.232,0.233v0.004C21.67,13.366,21.566,13.47,21.438,13.47z"/>
	</g>
	<g>
		<path fill="#9CB2BE" d="M23.744,14.929H2.032c-0.129,0-0.234-0.104-0.234-0.233V14.69c0-0.127,0.105-0.232,0.234-0.232h21.712
			c0.127,0,0.23,0.105,0.23,0.232v0.005C23.975,14.825,23.871,14.929,23.744,14.929z"/>
	</g>
	<g>
		<path fill="#9CB2BE" d="M14.599,18.592H2.032c-0.129,0-0.234-0.104-0.234-0.232v-0.005c0-0.128,0.105-0.232,0.234-0.232h12.566
			c0.127,0,0.233,0.104,0.233,0.232v0.005C14.832,18.488,14.726,18.592,14.599,18.592z"/>
	</g>
	<g>
		<path fill="#9CB2BE" d="M21.672,20.051H2.032c-0.129,0-0.234-0.104-0.234-0.231v-0.005c0-0.129,0.105-0.231,0.234-0.231h19.64
			c0.129,0,0.233,0.103,0.233,0.231v0.005C21.905,19.947,21.801,20.051,21.672,20.051z"/>
	</g>
	<g>
		<path fill="#9CB2BE" d="M25.33,21.511H2.032c-0.129,0-0.234-0.105-0.234-0.232v-0.004c0-0.13,0.105-0.232,0.234-0.232H25.33
			c0.127,0,0.232,0.103,0.232,0.232v0.004C25.563,21.405,25.457,21.511,25.33,21.511z"/>
	</g>
	<g>
		<path fill="#9CB2BE" d="M23.744,22.97H2.032c-0.129,0-0.234-0.105-0.234-0.232v-0.004c0-0.13,0.105-0.232,0.234-0.232h21.712
			c0.127,0,0.23,0.103,0.23,0.232v0.004C23.975,22.864,23.871,22.97,23.744,22.97z"/>
	</g>
	<g>
		<path fill="#9CB2BE" d="M20.421,24.43H2.032c-0.129,0-0.234-0.105-0.234-0.232v-0.006c0-0.13,0.105-0.231,0.234-0.231h18.389
			c0.128,0,0.234,0.102,0.234,0.231v0.006C20.655,24.324,20.55,24.43,20.421,24.43z"/>
	</g>
	<g>
		<path fill="#9CB2BE" d="M23.744,25.888H2.032c-0.129,0-0.234-0.105-0.234-0.232v-0.004c0-0.13,0.105-0.231,0.234-0.231h21.712
			c0.127,0,0.23,0.102,0.23,0.231v0.004C23.975,25.782,23.871,25.888,23.744,25.888z"/>
	</g>
	<g>
		<path fill="#9CB2BE" d="M14.751,16.754h-2.086c-0.15,0-0.271-0.121-0.271-0.271v-0.006c0-0.148,0.121-0.271,0.271-0.271h2.086
			c0.15,0,0.271,0.123,0.271,0.271v0.006C15.023,16.633,14.902,16.754,14.751,16.754z"/>
	</g>
	<g>
		<g>
			<path fill="#9CB2BE" d="M6.506,28.206c-1.728,0-3.127,1.4-3.127,3.128c0,1.725,1.4,3.125,3.127,3.125
				c1.726,0,3.125-1.4,3.125-3.125C9.631,29.606,8.232,28.206,6.506,28.206z M6.506,34.04c-1.497,0-2.708-1.213-2.708-2.706
				c0-1.496,1.211-2.709,2.708-2.709c1.494,0,2.706,1.213,2.706,2.709C9.212,32.827,8,34.04,6.506,34.04z"/>
		</g>
		<g>
			<g>
				<path fill="#9CB2BE" d="M6.506,29.289c-1.13,0-2.047,0.916-2.047,2.045c0,1.128,0.917,2.046,2.047,2.046
					c1.128,0,2.044-0.918,2.044-2.046C8.55,30.205,7.634,29.289,6.506,29.289z M6.506,33.059c-0.954,0-1.727-0.773-1.727-1.725
					c0-0.955,0.773-1.726,1.727-1.726c0.953,0,1.724,0.771,1.724,1.726C8.23,32.285,7.459,33.059,6.506,33.059z"/>
			</g>
		</g>
		<g>
			<g>
				<path fill="#9CB2BE" d="M8.725,32.433L8.55,32.347c-0.183,0.367-0.462,0.678-0.804,0.899l0.106,0.166
					C8.225,33.172,8.527,32.832,8.725,32.433z"/>
			</g>
			<g>
				<path fill="#9CB2BE" d="M4.223,31.334H4.027c0,0.786,0.369,1.488,0.943,1.942l0.121-0.152
					C4.562,32.705,4.223,32.059,4.223,31.334z"/>
			</g>
			<g>
				<path fill="#9CB2BE" d="M4.668,29.98l-0.157-0.115c-0.076,0.104-0.145,0.21-0.204,0.323l0.173,0.091
					C4.536,30.175,4.597,30.075,4.668,29.98z"/>
			</g>
			<g>
				<path fill="#9CB2BE" d="M6.506,33.616c-0.285,0-0.555-0.053-0.806-0.147l-0.069,0.184c0.272,0.102,0.566,0.158,0.875,0.158
					c0.188,0,0.373-0.022,0.55-0.061l-0.042-0.19C6.85,33.596,6.68,33.616,6.506,33.616z"/>
			</g>
			<g>
				<path fill="#9CB2BE" d="M6.506,29.051c0.304,0,0.596,0.062,0.859,0.168l0.074-0.182c-0.289-0.115-0.604-0.181-0.934-0.181
					c-0.26,0-0.509,0.038-0.744,0.113l0.059,0.186C6.038,29.087,6.266,29.051,6.506,29.051z"/>
			</g>
			<g>
				<path fill="#9CB2BE" d="M8.433,30.114l0.166-0.104c-0.08-0.125-0.169-0.242-0.268-0.352L8.187,29.79
					C8.279,29.892,8.361,30.001,8.433,30.114z"/>
			</g>
			<g>
				<path fill="#9CB2BE" d="M8.788,31.334c0,0.177-0.021,0.349-0.058,0.512l0.19,0.045c0.042-0.179,0.063-0.367,0.063-0.557
					c0-0.327-0.063-0.638-0.177-0.923l-0.181,0.074C8.73,30.746,8.788,31.034,8.788,31.334z"/>
			</g>
			<g>
				<path fill="#9CB2BE" d="M5.249,29.43l-0.108-0.166c-0.111,0.075-0.215,0.157-0.312,0.247l0.132,0.144
					C5.05,29.572,5.147,29.498,5.249,29.43z"/>
			</g>
		</g>
		<g>
			<g>
				<path fill="#9CB2BE" d="M7.602,31.691c0.136-0.408,0.03-0.865-0.276-1.169c-0.305-0.307-0.76-0.413-1.169-0.277l-0.249-0.249
					c0.557-0.256,1.209-0.141,1.646,0.297c0.438,0.436,0.553,1.091,0.297,1.646L7.602,31.691z"/>
			</g>
			<g>
				<path fill="#9CB2BE" d="M5.481,32.367c-0.437-0.438-0.553-1.091-0.299-1.646l0.25,0.247c-0.136,0.41-0.028,0.865,0.276,1.169
					c0.306,0.307,0.76,0.413,1.169,0.277l0.249,0.249C6.571,32.918,5.917,32.803,5.481,32.367z"/>
			</g>
		</g>
	</g>
	<g>
		<path fill="#9CB2BE" d="M24.248,32.673h-7.14c-0.05,0-0.092-0.041-0.092-0.093c0-0.048,0.042-0.088,0.092-0.088h7.14
			c0.051,0,0.09,0.04,0.09,0.088C24.338,32.632,24.299,32.673,24.248,32.673z"/>
	</g>
	<g>
		<path fill="#313B3F" d="M17.424,33.858c-0.086,0-0.167-0.031-0.242-0.095l-0.006-0.01c-0.157-0.16-0.199-0.369-0.121-0.601
			c0.185-0.546,1.031-1.169,1.743-1.491c0.594-1.145,1.266-2.387,2.039-2.79c0.046-0.025,0.101-0.005,0.124,0.038
			c0.023,0.046,0.006,0.1-0.039,0.123c-0.683,0.355-1.305,1.457-1.862,2.521c0.136-0.048,0.262-0.082,0.371-0.1
			c0.06-0.01,0.123,0.013,0.165,0.061c0.041,0.046,0.055,0.109,0.039,0.17c-0.03,0.106-0.083,0.206-0.132,0.307
			c-0.049,0.09-0.093,0.179-0.103,0.244c-0.002,0.007,0.002,0.012,0.003,0.017c0.004,0.002,0.01,0.004,0.016,0.002
			c0.217-0.05,0.527-0.322,0.8-0.56c0.216-0.188,0.42-0.365,0.577-0.436c0.052-0.025,0.113-0.014,0.156,0.024
			c0.042,0.039,0.055,0.103,0.035,0.154c-0.032,0.086-0.094,0.195-0.152,0.297c-0.053,0.091-0.136,0.233-0.154,0.304
			c0.116-0.014,0.323-0.153,0.493-0.268c0.244-0.165,0.4-0.265,0.521-0.258c0.077,0.005,0.109,0.043,0.125,0.072
			c0.037,0.077-0.017,0.152-0.077,0.238c-0.026,0.038-0.087,0.125-0.088,0.158c0.117,0,0.198-0.054,0.312-0.127
			c0.139-0.09,0.313-0.201,0.611-0.244c0.076-0.012,0.152,0.021,0.201,0.081c0.047,0.063,0.057,0.143,0.027,0.213
			c-0.033,0.077-0.078,0.214-0.02,0.272c0.08,0.079,0.387,0.065,0.813-0.118c0.048-0.021,0.102,0,0.121,0.048
			c0.02,0.045,0,0.1-0.049,0.118c-0.229,0.1-0.787,0.304-1.014,0.081c-0.104-0.102-0.109-0.261-0.02-0.472
			c0.006-0.013,0.002-0.024-0.004-0.031c-0.004-0.005-0.014-0.014-0.031-0.012c-0.26,0.037-0.406,0.132-0.537,0.216
			c-0.125,0.081-0.24,0.156-0.411,0.156c-0.001,0-0.001,0-0.003,0c-0.063,0-0.117-0.029-0.151-0.079
			c-0.077-0.118,0.015-0.254,0.087-0.356c-0.088,0.046-0.214,0.127-0.313,0.195c-0.232,0.154-0.45,0.302-0.616,0.302
			c-0.088,0-0.127-0.046-0.145-0.073c-0.061-0.106,0.021-0.263,0.162-0.508c0.031-0.054,0.062-0.108,0.089-0.16
			c-0.121,0.084-0.271,0.213-0.427,0.349c-0.303,0.263-0.616,0.537-0.878,0.601c-0.064,0.014-0.131-0.002-0.181-0.048
			c-0.049-0.045-0.072-0.11-0.062-0.177c0.016-0.095,0.067-0.194,0.123-0.304c0.046-0.088,0.094-0.179,0.119-0.267l-0.001-0.003
			c-0.146,0.021-0.33,0.082-0.529,0.17c-0.018,0.034-0.036,0.07-0.055,0.104c-0.541,1.04-0.966,1.863-1.382,1.942
			C17.469,33.856,17.445,33.858,17.424,33.858z M17.304,33.625c0.05,0.043,0.099,0.059,0.154,0.048
			c0.316-0.062,0.743-0.861,1.197-1.736c-0.615,0.324-1.279,0.843-1.428,1.276C17.172,33.378,17.197,33.514,17.304,33.625z"/>
	</g>
	<g>
		<path fill="#B18666" d="M28.42,27.739c-0.423,0.348-0.39,0.684-0.063,1.014c0.483,0.11,0.952,0.247,1.733-0.146
			c0.075-0.037,0.16-0.055,0.242-0.051c0.314,0.02,0.788-0.136,1.224-0.227l-0.544-0.897L28.42,27.739z"/>
		<path fill="#B18666" d="M31.62,28.37c-1.019,0.828-1.472,1.753-1.567,2.838l0.907,0.437c0.145-0.411,0.482-0.922,0.705-1.561
			c0.02-0.045,0.058-0.079,0.105-0.087c0.217-0.044,0.496-0.199,0.777-0.36L31.62,28.37z"/>
		<path fill="#E6AB7C" d="M33.608,38.663c-0.533-1.749-2.291-2.144-4.323-4.931c0,0-0.955-2.069-1.29-2.942
			c-0.077-0.202-0.083-0.431-0.036-0.594c0.02-0.064,0.128-0.574,0.109-1.311c0.017-0.193,0.147-0.359,0.33-0.417
			c0.638-0.195,1.201,1.094,1.233,1.576c0.007,0.096,0.042,0.181,0.104,0.248c0.26,0.289,0.492,0.968,0.977,1.097
			c0.12,0.034,0.247-0.011,0.326-0.106c0.029-0.032,0.057-0.065,0.088-0.098c0.673-0.715,0.75-1.8,0.207-2.615
			c-0.14-0.217-0.277-0.437-0.402-0.656c-0.063-0.118-0.195-0.178-0.33-0.155c-1.277,0.231-2.505,0.414-2.771-0.316
			c-0.087-0.234,0.021-0.497,0.244-0.61c0.539-0.272,1.708-0.5,3.032-0.716c0.29-0.047,0.59,0.007,0.844,0.156
			c0.249,0.146,0.473,0.313,0.661,0.507c1.005,0.221,1.264,0.655,2.141,1.097c0.364,0.185,0.783,0.302,1.194,0.464
			c0.405,0.161,0.71,0.502,0.828,0.923c0.51,1.832-0.001,6.184,1.549,9.013L33.608,38.663z"/>
		<path fill="#B18666" d="M32.611,26.779c0.931,0.804,1.706,1.385,2.328,1.704c-0.865-0.663-1.648-1.283-2.062-1.636
			C32.795,26.823,32.704,26.8,32.611,26.779z"/>
		<g>
			<path fill="#1A4D71" d="M35.688,33.908l0.041-0.069c0.04-0.072,0.055-0.124,0.059-0.155c0.002-0.028-0.006-0.056-0.023-0.073
				c-0.143-0.156-0.743-0.86-3.121-2.82l-0.248,0.301l-0.288,0.349C32.106,31.439,35.338,34.104,35.688,33.908z"/>
			<path fill="#00253D" d="M35.322,34.144c0.023,0.014,0.051,0.018,0.077,0.008c0.031-0.011,0.079-0.033,0.143-0.087l0.063-0.055
				c0.034-0.033,0.063-0.069,0.089-0.11l0.04-0.068c0.001-0.006,0.003-0.01,0.006-0.018c-0.056,0.048-0.099,0.068-0.128,0.08
				c-0.025,0.01-0.052,0.004-0.077-0.009c-0.179-0.109-0.989-0.56-3.366-2.52l-0.209,0.249
				C34.339,33.577,35.146,34.035,35.322,34.144z"/>
			
				<rect x="31.63" y="30.862" transform="matrix(-0.6352 0.7723 -0.7723 -0.6352 76.5702 25.9648)" fill="#F7C053" width="1.047" height="0.406"/>
			
				<rect x="29.546" y="26.897" transform="matrix(-0.6352 0.7723 -0.7723 -0.6352 71.8722 24.7956)" fill="#1A4D71" width="1.068" height="4.948"/>
			
				<rect x="27.585" y="27.692" transform="matrix(-0.6364 0.7714 -0.7714 -0.6364 67.4259 23.7303)" fill="#F7C053" width="1.071" height="0.13"/>
			<polygon fill="#B0B0B0" points="28.021,27.774 28.12,27.653 28.411,27.302 26.889,26.327 26.735,26.512 26.638,26.632 
				26.487,26.815 27.729,28.128 			"/>
			<polygon fill="#808080" points="27.938,27.876 26.616,26.66 26.638,26.632 26.487,26.815 27.729,28.128 			"/>
			<path fill="#F7C053" d="M26.487,26.815l0.2-0.242l0.201-0.246c0,0-0.479-0.425-0.762-0.746c-0.375,0.086-0.845-0.212-0.845-0.212
				l-0.021,0.026l-0.021,0.026c0,0,0.381,0.405,0.369,0.788C25.976,26.431,26.487,26.815,26.487,26.815z"/>
			<path fill="#AF8227" d="M26.487,26.815l0.131-0.158c0,0-0.509-0.388-0.878-0.604c0.004-0.198-0.479-0.658-0.479-0.658
				l-0.021,0.026c0,0,0.381,0.405,0.369,0.788C25.976,26.431,26.487,26.815,26.487,26.815z"/>
			<path fill="#F1AE2C" d="M32.611,31.643l0.176-0.217c0.013-0.016,0.036-0.018,0.05-0.002l2.626,2.165
				c0.016,0.012,0.021,0.033,0.006,0.049l-0.176,0.217c-0.014,0.016-0.035,0.018-0.05,0.002l-2.629-2.165
				C32.601,31.678,32.598,31.657,32.611,31.643z"/>
			<polygon fill="#00253D" points="27.832,28.209 28.037,27.959 30.157,29.706 31.857,31.105 31.648,31.357 			"/>
			
				<rect x="31.746" y="31.157" transform="matrix(-0.6428 0.766 -0.766 -0.6428 76.4425 27.0772)" fill="#AF8227" width="0.325" height="0.406"/>
			
				<rect x="27.721" y="27.978" transform="matrix(0.6327 -0.7744 0.7744 0.6327 -11.4755 31.8908)" fill="#AF8227" width="0.324" height="0.131"/>
			<circle fill="#55B5AC" cx="25.946" cy="25.962" r="0.051"/>
		</g>
		<g>
			<g>
				<g>
					<path fill="#E6AB7C" d="M28.074,26.832c-0.223,0.113-0.331,0.372-0.244,0.605c0.187,0.532,0.88,0.584,1.734,0.484l-1.256-1.191
						C28.221,26.764,28.142,26.797,28.074,26.832z"/>
				</g>
				<g>
					<path fill="#E6AB7C" d="M28.401,28.469c-0.073,0.021-0.138,0.063-0.189,0.113l1.368,1.19l-0.034-0.118
						C29.358,29.085,28.906,28.317,28.401,28.469z"/>
				</g>
			</g>
		</g>
		<g>
			<g>
				<g>
					<path fill="#FDCEA6" d="M28.328,29.211c0.123-0.168,0.187-0.452,0.206-0.566c0.006-0.026-0.009-0.058-0.037-0.07
						c-0.079-0.033-0.146-0.051-0.202-0.058c-0.129,0.079-0.213,0.221-0.227,0.375c-0.014,0.151,0.005,0.331-0.008,0.528
						C28.118,29.399,28.225,29.35,28.328,29.211z"/>
				</g>
			</g>
		</g>
		<path fill="#FFFFFF" d="M32.792,37.802c1.252-1.019,2.912-1.494,5.246-1.071l0.356,1.165l-5.328,0.877L32.792,37.802z"/>
		<path fill="#002740" d="M32.548,38.76c1.472-1.197,3.425-1.753,6.167-1.256L40,41.956h-6.547L32.548,38.76z"/>
	</g>
</g>
</svg>
