<?xml version="1.0" encoding="utf-8"?>
<!-- Generator: Adobe Illustrator 16.0.0, SVG Export Plug-In . SVG Version: 6.00 Build 0)  -->
<!DOCTYPE svg PUBLIC "-//W3C//DTD SVG 1.1//EN" "http://www.w3.org/Graphics/SVG/1.1/DTD/svg11.dtd">
<svg version="1.1" id="Layer_1" xmlns="http://www.w3.org/2000/svg" xmlns:xlink="http://www.w3.org/1999/xlink" x="0px" y="0px"
	 width="40px" height="42px" viewBox="0 0 40 42" enable-background="new 0 0 40 42" xml:space="preserve">
<g>
	<g>
		<g>
			<g>
				<polygon fill="#A1A1A0" points="0,16.359 19.619,35.941 19.764,35.401 0.145,15.818 				"/>
				<polygon fill="#A1A1A0" points="38.885,30.26 19.764,35.401 19.619,35.941 38.741,30.801 				"/>
			</g>
		</g>
		<g>
			<g>
				<polygon fill="#BCBCBB" points="19.265,10.681 38.883,30.266 19.763,35.407 0.144,15.825 				"/>
			</g>
			<g opacity="0.2">
				<polygon fill="#010101" points="19.721,13.521 4.311,17.666 3.152,16.51 18.563,12.366 				"/>
				<path fill="#231F20" d="M19.847,13.556L4.291,17.74l-1.265-1.264l15.555-4.184L19.847,13.556z M4.33,17.595l15.265-4.106
					l-1.051-1.051L3.279,16.543L4.33,17.595z"/>
			</g>
			<g opacity="0.2">
				<polygon fill="#231F20" points="24.506,17.912 8.79,22.138 8.364,21.711 24.08,17.485 				"/>
			</g>
			<g opacity="0.2">
				<polygon fill="#231F20" points="26.01,19.411 10.293,23.638 9.866,23.213 25.583,18.986 				"/>
			</g>
			<g opacity="0.2">
				<polygon fill="#231F20" points="27.512,20.912 11.796,25.139 11.371,24.712 27.086,20.487 				"/>
			</g>
			<g opacity="0.2">
				<polygon fill="#231F20" points="29.015,22.412 13.299,26.638 12.873,26.214 28.589,21.986 				"/>
			</g>
			<g opacity="0.2">
				<polygon fill="#231F20" points="23.003,16.411 7.286,20.638 6.86,20.213 22.578,15.986 				"/>
			</g>
			<g opacity="0.2">
				<polygon fill="#231F20" points="32.021,25.413 16.305,29.639 15.879,29.214 31.596,24.987 				"/>
			</g>
			<g opacity="0.2">
				<polygon fill="#231F20" points="35.654,29.006 30.11,30.498 29.684,30.072 35.228,28.58 				"/>
			</g>
			<g opacity="0.2">
				<polygon fill="#231F20" points="30.544,23.904 14.802,28.14 14.376,27.714 30.117,23.479 				"/>
			</g>
		</g>
		<g>
			<polygon fill="#C9CBC4" points="0.614,14.209 20.233,33.792 20.377,33.252 0.759,13.669 			"/>
			<polygon fill="#C9CBC4" points="39.498,28.109 20.377,33.252 20.233,33.792 39.354,28.652 			"/>
		</g>
		<g>
			<g>
				<g>
					<polygon fill="#E2E5DD" points="19.886,8.505 39.504,28.088 20.384,33.23 0.765,13.647 					"/>
				</g>
			</g>
			<g opacity="0.2">
				<polygon fill="#010101" points="20.343,11.345 4.933,15.489 3.774,14.333 19.184,10.189 				"/>
				<path fill="#231F20" d="M20.468,11.378L4.913,15.563L3.648,14.3l15.555-4.182L20.468,11.378z M4.952,15.417l15.264-4.105
					l-1.051-1.051L3.9,14.367L4.952,15.417z"/>
			</g>
			<g opacity="0.2">
				<polygon fill="#231F20" points="25.129,15.733 9.411,19.961 8.986,19.536 24.702,15.31 				"/>
			</g>
			<g opacity="0.2">
				<polygon fill="#231F20" points="26.631,17.234 10.914,21.462 10.488,21.037 26.204,16.81 				"/>
			</g>
			<g opacity="0.2">
				<polygon fill="#231F20" points="28.134,18.734 12.418,22.959 11.992,22.535 27.706,18.309 				"/>
			</g>
			<g opacity="0.2">
				<polygon fill="#231F20" points="29.637,20.235 13.921,24.462 13.495,24.036 29.21,19.81 				"/>
			</g>
			<g opacity="0.2">
				<polygon fill="#231F20" points="23.625,14.233 7.908,18.46 7.483,18.036 23.199,13.809 				"/>
			</g>
			<g opacity="0.2">
				<polygon fill="#231F20" points="32.644,23.235 16.926,27.462 16.501,27.037 32.217,22.81 				"/>
			</g>
			<g opacity="0.2">
				<polygon fill="#231F20" points="36.275,26.83 30.731,28.319 30.306,27.895 35.849,26.403 				"/>
			</g>
			<g opacity="0.2">
				<polygon fill="#231F20" points="31.166,21.729 15.424,25.961 14.998,25.536 30.739,21.304 				"/>
			</g>
		</g>
		<g>
			<g>
				<polygon fill="#C9CBC4" points="1.03,11.742 20.648,31.326 20.794,30.783 1.175,11.201 				"/>
				<polygon fill="#C9CBC4" points="39.915,25.641 20.794,30.783 20.648,31.326 39.771,26.184 				"/>
			</g>
			<g>
				<g>
					<polygon fill="#E2E5DD" points="20.382,6.059 40,25.641 20.88,30.784 1.262,11.201 					"/>
				</g>
				<g opacity="0.2">
					<polygon fill="#010101" points="19.454,10.084 7.928,13.185 7.155,12.414 18.684,9.314 					"/>
					<path fill="#231F20" d="M19.581,10.118L7.908,13.257L7.03,12.38l11.673-3.139L19.581,10.118z M7.947,13.111L19.33,10.05
						l-0.665-0.664L7.282,12.448L7.947,13.111z"/>
				</g>
				<g opacity="0.2">
					<g>
						<polygon fill="#010101" points="25.199,12.862 15.977,15.343 16.4,15.768 25.624,13.288 						"/>
					</g>
					<g>
						<polygon fill="#010101" points="26.701,14.363 17.479,16.844 17.903,17.268 27.127,14.788 						"/>
					</g>
					<g>
						<polygon fill="#010101" points="28.204,15.863 12.488,20.09 12.913,20.515 28.63,16.289 						"/>
					</g>
					<g>
						<polygon fill="#010101" points="29.706,17.363 13.991,21.59 14.416,22.014 30.132,17.788 						"/>
					</g>
					<g>
						<polygon fill="#010101" points="23.696,11.362 14.472,13.843 14.898,14.268 24.121,11.788 						"/>
					</g>
					<g>
						<polygon fill="#010101" points="32.714,20.364 16.998,24.591 17.423,25.016 33.139,20.789 						"/>
					</g>
					<g>
						<polygon fill="#010101" points="31.229,25.873 36.771,24.383 36.345,23.958 30.803,25.448 						"/>
					</g>
					<g>
						<polygon fill="#010101" points="15.493,23.091 15.92,23.515 31.659,19.282 31.235,18.856 						"/>
					</g>
				</g>
				<g>
					<path fill="#48A3DA" d="M26.001,25.478c0.62,0.62,0.438,1.307-0.409,1.535c-0.849,0.228-2.04-0.09-2.661-0.709
						c-0.621-0.621-0.437-1.309,0.41-1.536C24.189,24.539,25.381,24.857,26.001,25.478z"/>
				</g>
				<g>
					<path fill="#E2E5DD" d="M25.333,25.657c0.351,0.349,0.247,0.738-0.231,0.868c-0.479,0.128-1.15-0.052-1.504-0.402
						c-0.351-0.351-0.247-0.738,0.232-0.867C24.309,25.126,24.982,25.307,25.333,25.657z"/>
				</g>
				<g>
					<g>
						<polygon fill="#5EC093" points="11.324,18.928 17.05,17.39 13.846,14.19 8.121,15.729 						"/>
					</g>
				</g>
			</g>
		</g>
	</g>
</g>
</svg>
