<?xml version="1.0" encoding="utf-8"?>
<!-- Generator: Adobe Illustrator 16.0.0, SVG Export Plug-In . SVG Version: 6.00 Build 0)  -->
<!DOCTYPE svg PUBLIC "-//W3C//DTD SVG 1.1//EN" "http://www.w3.org/Graphics/SVG/1.1/DTD/svg11.dtd">
<svg version="1.1" id="Layer_1" xmlns="http://www.w3.org/2000/svg" xmlns:xlink="http://www.w3.org/1999/xlink" x="0px" y="0px"
	 width="120px" height="120px" viewBox="0 0 120 120" enable-background="new 0 0 120 120" xml:space="preserve">
<g>
	<path fill-rule="evenodd" clip-rule="evenodd" fill="#1B3238" d="M77.037,66.194c1.664,1.249,3.455,2.496,4.449,2.918
		l30.674,13.802c1.541,0.756,2.396,2.785,2.594,4.465L117.68,120H2.32l2.925-32.621c0.198-1.68,1.054-3.709,2.595-4.465
		l30.673-13.802c0.996-0.422,2.785-1.669,4.449-2.918l11.243,29.982c0.364-3.59,0.783-12.366,1.257-14.619
		c0.109-0.486,0.303-1.036-0.058-1.443c-0.479-0.55-2.099-2.739-2.186-3.464c-0.176-1.899,0.242-6.756,1.961-6.643
		c2.992,0.699,6.646,0.699,9.64,0c1.719-0.113,2.137,4.743,1.963,6.643c-0.088,0.725-1.707,2.914-2.188,3.464
		c-0.361,0.407-0.168,0.957-0.057,1.443c0.475,2.253,0.893,11.029,1.258,14.619L77.037,66.194z"/>
	<path fill-rule="evenodd" clip-rule="evenodd" fill="#FFFFFF" d="M42.962,66.194l3.863-5.624c2.338,3.068,5.043,5.574,7.717,6.063
		c3.55,0.652,7.37,0.652,10.922,0c2.68-0.489,5.363-3.02,7.676-6.11l3.896,5.672l-11.24,29.982
		c-0.365-3.59-0.783-12.366-1.258-14.619c-0.111-0.486-0.305-1.036,0.057-1.443c0.48-0.55,2.1-2.739,2.188-3.464
		c0.174-1.899-0.244-6.756-1.963-6.643c-2.994,0.699-6.648,0.699-9.64,0c-1.719-0.113-2.137,4.743-1.961,6.643
		c0.086,0.725,1.706,2.914,2.186,3.464c0.361,0.407,0.167,0.957,0.058,1.443c-0.475,2.253-0.893,11.029-1.257,14.619L42.962,66.194z
		"/>
	<path fill-rule="evenodd" clip-rule="evenodd" fill="#072329" d="M77.037,66.194c1.664,1.249,3.455,2.496,4.449,2.918
		l30.674,13.802c1.541,0.756,2.396,2.785,2.594,4.465L117.68,120H60.002V70.533c1.662,0,3.322-0.176,4.818-0.525
		c1.719-0.113,2.137,4.743,1.963,6.643c-0.088,0.725-1.707,2.914-2.188,3.464c-0.361,0.407-0.168,0.957-0.057,1.443
		c0.475,2.253,0.893,11.029,1.258,14.619L77.037,66.194L77.037,66.194z M75.107,102.372v2.954h19.193v-2.954H75.107z"/>
	<path fill-rule="evenodd" clip-rule="evenodd" fill="#D1D3D4" d="M60.002,67.122c1.844,0,3.686-0.162,5.463-0.489
		c2.68-0.489,5.363-3.02,7.676-6.11l3.896,5.672l-11.24,29.982c-0.365-3.59-0.783-12.366-1.258-14.619
		c-0.111-0.486-0.305-1.036,0.057-1.443c0.48-0.55,2.1-2.739,2.188-3.464c0.174-1.899-0.244-6.756-1.963-6.643
		c-1.496,0.35-3.156,0.525-4.818,0.525V67.122z"/>
	<path fill-rule="evenodd" clip-rule="evenodd" fill="#613500" d="M60.001,28.394c-4.472,0.001-8.943-1.167-12.847-3.503
		c-4.574-2.736-4.549,6.183-4.128,10.463c0.142,0.994-0.315,1.364-1.26,1.103c-2.291-0.645-2.141-1.502-2.614-3.646
		c-0.188-0.863-0.903-0.688-1.444-0.082c-0.672,0.75-0.872,2.796-0.819,3.769c0.171,3.175,0.852,6.892,1.505,9.947
		c-2.769-3.834-3.313-10.609-3.418-14.876c-0.396-9.563,0.268-14.408,1.039-17.297c4.776-19.026,43.195-19.026,47.971,0
		c0.77,2.889,1.436,7.734,1.039,17.297c-0.105,4.267-0.648,11.042-3.418,14.876c0.652-3.056,1.334-6.772,1.506-9.947
		c0.053-0.973-0.148-3.019-0.82-3.769c-0.541-0.605-1.256-0.781-1.443,0.082c-0.475,2.145-0.322,3.002-2.613,3.646
		c-0.945,0.262-1.402-0.108-1.26-1.103c0.42-4.28,0.445-13.199-4.129-10.463C68.945,27.227,64.473,28.395,60.001,28.394z"/>
	<path fill-rule="evenodd" clip-rule="evenodd" fill="#FEC155" d="M40.545,49.21c-0.881-0.549-1.494-1.173-1.893-2.148
		c-0.099-0.238-0.193-0.486-0.284-0.741c-0.645-3.03-1.311-6.692-1.479-9.824c-0.053-0.973,0.147-3.019,0.819-3.769
		c0.541-0.605,1.256-0.781,1.444,0.082c0.473,2.145,0.323,3.002,2.614,3.646c0.944,0.262,1.401-0.108,1.26-1.103
		c-0.421-4.28-0.446-13.199,4.128-10.463c3.904,2.336,8.375,3.504,12.847,3.503c4.471,0.001,8.944-1.167,12.846-3.503
		c4.574-2.736,4.549,6.183,4.129,10.463c-0.143,0.994,0.314,1.364,1.26,1.103c2.291-0.645,2.139-1.502,2.613-3.646
		c0.188-0.863,0.902-0.688,1.443-0.082c0.672,0.75,0.873,2.796,0.82,3.769c-0.17,3.136-0.836,6.804-1.482,9.838
		c-0.088,0.249-0.184,0.493-0.279,0.728c-0.4,0.976-1.012,1.6-1.893,2.148c-1.76,4.935-7.959,16.321-13.998,17.423
		c-3.561,0.655-7.357,0.655-10.918,0C48.505,65.531,42.306,54.145,40.545,49.21z"/>
	<path fill-rule="evenodd" clip-rule="evenodd" fill="#E9AD3F" d="M60.002,28.394c4.471,0.001,8.943-1.167,12.846-3.503
		c4.574-2.736,4.549,6.183,4.129,10.463c-0.143,0.994,0.314,1.364,1.26,1.103c2.291-0.645,2.139-1.502,2.613-3.646
		c0.188-0.863,0.902-0.688,1.443-0.082c0.672,0.75,0.873,2.796,0.82,3.769c-0.17,3.136-0.836,6.804-1.482,9.838
		c-0.088,0.249-0.184,0.493-0.279,0.728c-0.4,0.976-1.012,1.6-1.893,2.148c-1.76,4.935-7.959,16.321-13.998,17.423
		c-1.779,0.327-3.619,0.49-5.459,0.49V28.394z"/>
	<path fill-rule="evenodd" clip-rule="evenodd" fill="#552D00" d="M60.002,0C70.801,0,81.6,4.759,83.986,14.271
		c0.77,2.889,1.436,7.734,1.039,17.297c-0.105,4.267-0.648,11.042-3.418,14.876c0.652-3.056,1.334-6.772,1.506-9.947
		c0.053-0.973-0.148-3.019-0.82-3.769c-0.541-0.605-1.256-0.781-1.443,0.082c-0.475,2.145-0.322,3.002-2.613,3.646
		c-0.945,0.262-1.402-0.108-1.26-1.103c0.42-4.28,0.445-13.199-4.129-10.463c-3.902,2.336-8.375,3.504-12.846,3.503V0z"/>
</g>
</svg>
