<?xml version="1.0" encoding="utf-8"?>
<!-- Generator: Adobe Illustrator 16.0.0, SVG Export Plug-In . SVG Version: 6.00 Build 0)  -->
<!DOCTYPE svg PUBLIC "-//W3C//DTD SVG 1.1//EN" "http://www.w3.org/Graphics/SVG/1.1/DTD/svg11.dtd">
<svg version="1.1" id="Layer_1" xmlns="http://www.w3.org/2000/svg" xmlns:xlink="http://www.w3.org/1999/xlink" x="0px" y="0px"
	 width="40px" height="40px" viewBox="0 0 40 40" enable-background="new 0 0 40 40" xml:space="preserve">
<g>
	<polygon fill="#E77B9C" points="36.594,23.332 32.345,21.669 32.345,6.894 	"/>
	<polygon fill="#D4547C" points="36.594,23.332 32.345,21.669 25.233,36.446 	"/>
	<polygon fill="#005BA0" points="13.505,26.656 6.855,32.752 25.233,36.446 	"/>
	<polygon fill="#247ABF" points="3.161,14.281 13.505,26.656 6.855,32.752 	"/>
	<polygon fill="#D4547C" points="14.613,2.46 18.123,8.187 3.161,14.281 	"/>
	<polygon fill="#E77B9C" points="32.345,6.894 18.123,8.187 14.613,2.46 	"/>
	<polygon fill="#00B6DE" points="17.318,7.999 12.742,26.22 30.214,20.063 	"/>
	<g>
		
			<rect x="12.205" y="4.014" transform="matrix(0.6398 0.7685 -0.7685 0.6398 8.862 -10.669)" fill="#5D5F5F" width="7.216" height="0.211"/>
		
			<rect x="7.203" y="-1.186" transform="matrix(0.714 0.7002 -0.7002 0.714 7.4529 -2.927)" fill="#5D5F5F" width="0.212" height="17.69"/>
		
			<rect x="-1.964" y="20.764" transform="matrix(0.6681 0.744 -0.744 0.6681 17.9534 1.4876)" fill="#5D5F5F" width="18.546" height="0.213"/>
		
			<rect x="9.517" y="25.864" transform="matrix(0.6095 0.7928 -0.7928 0.6095 28.1512 4.386)" fill="#5D5F5F" width="0.213" height="9.809"/>
		
			<rect x="-6.197" y="23.206" transform="matrix(0.2405 0.9707 -0.9707 0.2405 25.2308 14.379)" fill="#5D5F5F" width="19.248" height="0.212"/>
		
			<rect x="15.708" y="6.64" transform="matrix(0.9773 0.212 -0.212 0.9773 4.0347 -2.9591)" fill="#5D5F5F" width="0.212" height="21.382"/>
		
			<rect x="15.023" y="14.345" transform="matrix(0.7122 0.702 -0.702 0.7122 17.5685 -13.9455)" fill="#5D5F5F" width="21.534" height="0.213"/>
		
			<rect x="23.375" y="14.507" transform="matrix(0.2759 0.9612 -0.9612 0.2759 40.9264 -4.5474)" fill="#5D5F5F" width="0.212" height="20.768"/>
		
			<rect x="11.369" y="33.105" transform="matrix(0.733 0.6802 -0.6802 0.733 27.761 -4.3084)" fill="#5D5F5F" width="16" height="0.213"/>
		
			<rect x="5.44" y="36.104" transform="matrix(0.97 0.2432 -0.2432 0.97 9.2721 -2.6796)" fill="#5D5F5F" width="20.096" height="0.212"/>
		
			<rect x="31.954" y="20.893" transform="matrix(0.7431 0.6692 -0.6692 0.7431 29.04 -13.4684)" fill="#5D5F5F" width="0.212" height="20.385"/>
		
			<rect x="33.356" y="22.657" transform="matrix(0.9636 0.2673 -0.2673 0.9636 7.4022 -8.8418)" fill="#5D5F5F" width="5.633" height="0.212"/>
		
			<rect x="33.858" y="6.186" transform="matrix(0.9979 0.0644 -0.0644 0.9979 0.9787 -2.1574)" fill="#5D5F5F" width="0.212" height="15.841"/>
		
			<rect x="27.743" y="14.754" transform="matrix(0.2472 0.969 -0.969 0.2472 42.0098 -24.3524)" fill="#5D5F5F" width="17.869" height="0.212"/>
		
			<rect x="26.19" y="-1.633" transform="matrix(0.0414 0.9991 -0.9991 0.0414 31.7484 -19.9968)" fill="#5D5F5F" width="0.212" height="16.361"/>
		
			<rect x="13.227" y="3.668" transform="matrix(0.9742 0.2256 -0.2256 0.9742 1.4702 -5.3149)" fill="#5D5F5F" width="21.52" height="0.213"/>
		
			<rect x="9.366" y="1.355" transform="matrix(0.3911 0.9203 -0.9203 0.3911 15.3682 -2.3658)" fill="#5D5F5F" width="0.212" height="18.155"/>
		
			<rect x="29.24" y="21.05" transform="matrix(0.8972 0.4417 -0.4417 0.8972 16.4148 -9.8427)" fill="#5D5F5F" width="0.212" height="18.564"/>
	</g>
	<g>
		<circle fill="#5D5F5F" cx="18.123" cy="6.894" r="1.113"/>
		<circle fill="#5D5F5F" cx="13.505" cy="27.771" r="1.113"/>
		<circle fill="#5D5F5F" cx="25.233" cy="38.653" r="1.113"/>
		<circle fill="#5D5F5F" cx="38.886" cy="23.517" r="1.114"/>
		<circle fill="#5D5F5F" cx="34.469" cy="6.202" r="1.113"/>
		<circle fill="#5D5F5F" cx="13.505" cy="1.347" r="1.113"/>
		<circle fill="#5D5F5F" cx="1.113" cy="13.971" r="1.113"/>
		<circle fill="#5D5F5F" cx="5.742" cy="33.767" r="1.113"/>
		<circle fill="#5D5F5F" cx="33.458" cy="22.011" r="1.113"/>
	</g>
</g>
</svg>
