<?xml version="1.0" encoding="utf-8"?>
<!-- Generator: Adobe Illustrator 16.0.0, SVG Export Plug-In . SVG Version: 6.00 Build 0)  -->
<!DOCTYPE svg PUBLIC "-//W3C//DTD SVG 1.1//EN" "http://www.w3.org/Graphics/SVG/1.1/DTD/svg11.dtd">
<svg version="1.1" id="Layer_1" xmlns="http://www.w3.org/2000/svg" xmlns:xlink="http://www.w3.org/1999/xlink" x="0px" y="0px"
	 width="40px" height="45px" viewBox="0 -2.5 40 45" enable-background="new 0 -2.5 40 45" xml:space="preserve">
<g>
	<g>
		<g>
			<g>
				<g>
					<g>
						<g>
							<g>
								<polygon fill="#E0E0E0" points="12.013,42.066 4.237,37.577 22.802,25.072 33.67,31.347 								"/>
							</g>
						</g>
					</g>
				</g>
			</g>
		</g>
	</g>
	<g>
		<g>
			<g>
				<g>
					<g>
						<g>
							<path fill="#4C68B1" d="M34.322,30.79L34.322,30.79l-0.698-0.363c-0.233-0.157-0.619-0.058-1.01,0.397
								c-0.248,0.288-0.396,0.654-0.399,1.036c-0.004,0.251,0.057,0.354,0.193,0.475c0.07,0.061,0.148,0.113,0.229,0.155
								l0.586,0.306L34.322,30.79z"/>
						</g>
					</g>
				</g>
			</g>
		</g>
	</g>
	<g>
		<g>
			<g>
				<g>
					<g>
						<g>
							<g>
								<g>
									<g>
										<g>
											<g>
												<g>
													<g>
														<g>
															<g>
																<g>
																	<g>
																		<g>
																			<g>
																				<path fill="#90BFE7" d="M32.905,32.234c0-0.52,0.364-1.148,0.813-1.409c0.449-0.259,0.813-0.049,0.813,0.47
																					c0,0.518-0.363,1.148-0.813,1.408C33.27,32.963,32.905,32.752,32.905,32.234z"/>
																			</g>
																		</g>
																	</g>
																</g>
															</g>
														</g>
													</g>
												</g>
											</g>
										</g>
									</g>
								</g>
							</g>
						</g>
					</g>
				</g>
			</g>
		</g>
		<g>
			<g>
				<g>
					<g>
						<g>
							<g>
								<g>
									<g>
										<g>
											<g>
												<g>
													<g>
														<g>
															<g>
																<g>
																	<g>
																		<g>
																			<g>
																				<path fill="#22386D" d="M32.905,32.234c0-0.52,0.364-1.148,0.813-1.409c0.449-0.259,0.813-0.049,0.813,0.47
																					c0,0.518-0.363,1.148-0.813,1.408C33.27,32.963,32.905,32.752,32.905,32.234z"/>
																			</g>
																		</g>
																	</g>
																</g>
															</g>
														</g>
													</g>
												</g>
											</g>
										</g>
									</g>
								</g>
							</g>
						</g>
					</g>
				</g>
			</g>
		</g>
	</g>
	<g>
		<g>
			<g>
				<g>
					<g>
						<g>
							<g>
								<g>
									<g>
										<g>
											<g>
												<g>
													<g>
														<g>
															<g>
																<g>
																	<g>
																		<g>
																			<g>
																				<path fill="#22386D" d="M3.235,37.294c0-0.519,0.363-1.147,0.812-1.408c0.449-0.258,0.813-0.048,0.813,0.47
																					c0,0.519-0.363,1.148-0.812,1.407C3.598,38.023,3.235,37.813,3.235,37.294z"/>
																			</g>
																		</g>
																	</g>
																</g>
															</g>
														</g>
													</g>
												</g>
											</g>
										</g>
									</g>
								</g>
							</g>
						</g>
					</g>
				</g>
			</g>
		</g>
	</g>
	<g>
		<g>
			<g>
				<g>
					<g>
						<g>
							<g>
								<g>
									<g>
										<g>
											<g>
												<g>
													<g>
														<g>
															<g>
																<g>
																	<g>
																		<g>
																			<g>
																				<g>
																					<path fill="#22386D" d="M3.924,37.651c0-0.519,0.365-1.148,0.814-1.406c0.449-0.259,0.813-0.051,0.813,0.468
																						s-0.364,1.149-0.813,1.409C4.289,38.381,3.924,38.17,3.924,37.651z"/>
																				</g>
																			</g>
																		</g>
																	</g>
																</g>
															</g>
														</g>
													</g>
												</g>
											</g>
										</g>
									</g>
								</g>
							</g>
						</g>
					</g>
				</g>
			</g>
		</g>
		<g>
			<g>
				<g>
					<g>
						<g>
							<g>
								<g>
									<path fill="#1A52A4" d="M5.244,36.157l-0.6-0.313l0,0c-0.149-0.101-0.359-0.095-0.598,0.041
										c-0.449,0.259-0.812,0.89-0.812,1.408c0,0.305,0.125,0.5,0.319,0.562l0,0c0.036,0.026,0.644,0.342,0.687,0.356l0.004,0.002
										v-0.002c0.138,0.042,0.307,0.018,0.493-0.09c0.449-0.259,0.813-0.891,0.813-1.409C5.551,36.417,5.43,36.221,5.244,36.157z"
										/>
								</g>
							</g>
						</g>
					</g>
				</g>
			</g>
		</g>
	</g>
	<g>
		<g>
			<g>
				<g>
					<g>
						<g>
							<path fill="#4C68B1" d="M22.952,23.367L22.952,23.367l-0.7-0.365c-0.232-0.156-0.618-0.056-1.011,0.399
								c-0.247,0.288-0.395,0.655-0.398,1.037c-0.002,0.251,0.057,0.354,0.195,0.475c0.069,0.061,0.146,0.112,0.228,0.155
								l0.587,0.305L22.952,23.367z"/>
						</g>
					</g>
				</g>
			</g>
		</g>
	</g>
	<g>
		<g>
			<g>
				<g>
					<g>
						<g>
							<g>
								<g>
									<g>
										<g>
											<g>
												<g>
													<g>
														<g>
															<g>
																<g>
																	<g>
																		<g>
																			<g>
																				<path fill="#90BFE7" d="M21.531,24.81c0-0.518,0.365-1.147,0.814-1.408c0.447-0.258,0.814-0.048,0.814,0.47
																					c0,0.52-0.365,1.148-0.814,1.409C21.896,25.54,21.531,25.329,21.531,24.81z"/>
																			</g>
																		</g>
																	</g>
																</g>
															</g>
														</g>
													</g>
												</g>
											</g>
										</g>
									</g>
								</g>
							</g>
						</g>
					</g>
				</g>
			</g>
		</g>
		<g>
			<g>
				<g>
					<g>
						<g>
							<g>
								<g>
									<g>
										<g>
											<g>
												<g>
													<g>
														<g>
															<g>
																<g>
																	<g>
																		<g>
																			<g>
																				<path fill="#22386D" d="M21.531,24.81c0-0.518,0.365-1.147,0.814-1.408c0.447-0.258,0.814-0.048,0.814,0.47
																					c0,0.52-0.365,1.148-0.814,1.409C21.896,25.54,21.531,25.329,21.531,24.81z"/>
																			</g>
																		</g>
																	</g>
																</g>
															</g>
														</g>
													</g>
												</g>
											</g>
										</g>
									</g>
								</g>
							</g>
						</g>
					</g>
				</g>
			</g>
		</g>
	</g>
	<g>
		<g>
			<g>
				<g>
					<g>
						<g>
							<path fill="#4C68B1" d="M13.324,40.477L13.324,40.477l-0.701-0.364c-0.232-0.155-0.617-0.056-1.009,0.397
								c-0.248,0.288-0.397,0.655-0.4,1.037c-0.002,0.251,0.057,0.354,0.196,0.475c0.069,0.061,0.146,0.112,0.229,0.156l0.587,0.303
								L13.324,40.477z"/>
						</g>
					</g>
				</g>
			</g>
		</g>
	</g>
	<g>
		<g>
			<g>
				<g>
					<g>
						<g>
							<g>
								<g>
									<g>
										<g>
											<g>
												<g>
													<g>
														<g>
															<g>
																<g>
																	<g>
																		<g>
																			<g>
																				<path fill="#90BFE7" d="M11.906,41.921c0-0.519,0.364-1.148,0.813-1.409c0.449-0.26,0.813-0.048,0.813,0.469
																					c0,0.519-0.365,1.149-0.813,1.408C12.27,42.648,11.906,42.439,11.906,41.921z"/>
																			</g>
																		</g>
																	</g>
																</g>
															</g>
														</g>
													</g>
												</g>
											</g>
										</g>
									</g>
								</g>
							</g>
						</g>
					</g>
				</g>
			</g>
		</g>
		<g>
			<g>
				<g>
					<g>
						<g>
							<g>
								<g>
									<g>
										<g>
											<g>
												<g>
													<g>
														<g>
															<g>
																<g>
																	<g>
																		<g>
																			<g>
																				<path fill="#22386D" d="M11.906,41.921c0-0.519,0.364-1.148,0.813-1.409c0.449-0.26,0.813-0.048,0.813,0.469
																					c0,0.519-0.365,1.149-0.813,1.408C12.27,42.648,11.906,42.439,11.906,41.921z"/>
																			</g>
																		</g>
																	</g>
																</g>
															</g>
														</g>
													</g>
												</g>
											</g>
										</g>
									</g>
								</g>
							</g>
						</g>
					</g>
				</g>
			</g>
		</g>
	</g>
	<g>
		<g>
			<g>
				<g>
					<g>
						<g>
							<g>
								<g>
									<g>
										<path fill="#4964AF" d="M33.495,25.234c-0.069,0-0.14-0.018-0.205-0.051l-12.673-6.542
											c-0.165-0.083-0.258-0.259-0.241-0.443l1.676-16.038c0.015-0.147,0.104-0.278,0.234-0.348
											c0.128-0.07,0.286-0.071,0.415-0.001l14.504,7.622c0.18,0.095,0.273,0.297,0.228,0.493l-0.01,0.044
											c-0.054,0.241-0.293,0.392-0.533,0.337c-0.107-0.023-0.198-0.085-0.259-0.168l-13.76-7.231l-1.576,15.08L33.7,24.391
											c0.219,0.113,0.305,0.382,0.191,0.602C33.813,25.145,33.656,25.234,33.495,25.234z"/>
									</g>
								</g>
							</g>
						</g>
					</g>
				</g>
			</g>
		</g>
		<g>
			<g>
				<g>
					<g>
						<g>
							<g>
								<g>
									<g>
										
											<rect x="25.666" y="4.532" transform="matrix(-0.9887 -0.1498 0.1498 -0.9887 49.6295 28.5201)" fill="#4964AF" width="0.446" height="15.717"/>
									</g>
								</g>
							</g>
						</g>
					</g>
				</g>
			</g>
		</g>
		<g>
			<g>
				<g>
					<g>
						<g>
							<g>
								<g>
									<g>
										
											<rect x="30.685" y="7.635" transform="matrix(-0.9846 -0.175 0.175 -0.9846 58.6859 35.4943)" fill="#4964AF" width="0.446" height="15.048"/>
									</g>
								</g>
							</g>
						</g>
					</g>
				</g>
			</g>
		</g>
		<g>
			<g>
				<g>
					<g>
						<g>
							<g>
								<g>
									<g>
										
											<rect x="20.937" y="11.609" transform="matrix(-0.8736 -0.4867 0.4867 -0.8736 48.5847 36.2848)" fill="#4964AF" width="16.136" height="0.445"/>
									</g>
								</g>
							</g>
						</g>
					</g>
				</g>
			</g>
		</g>
		<g>
			<g>
				<g>
					<g>
						<g>
							<g>
								<g>
									<g>
										
											<rect x="20.41" y="16.783" transform="matrix(-0.8792 -0.4764 0.4764 -0.8792 44.4509 45.2833)" fill="#4964AF" width="15.113" height="0.447"/>
									</g>
								</g>
							</g>
						</g>
					</g>
				</g>
			</g>
		</g>
	</g>
	<g>
		<g>
			<g>
				<g>
					<g>
						<g>
							<g>
								<g>
									<g>
										<path fill="#4964AF" d="M3.095,28.565c-0.181,0-0.355-0.102-0.441-0.275c-0.119-0.243-0.021-0.538,0.224-0.656
											l17.86-8.782L21.76,3.12L1.482,17.636c-0.22,0.158-0.526,0.107-0.685-0.115c-0.158-0.219-0.107-0.527,0.113-0.684
											L22.032,1.718c0.154-0.11,0.359-0.122,0.526-0.03C22.723,1.78,22.82,1.96,22.81,2.149L21.7,19.199
											c-0.01,0.174-0.114,0.331-0.272,0.408L3.312,28.515C3.241,28.55,3.168,28.565,3.095,28.565z"/>
									</g>
								</g>
							</g>
						</g>
					</g>
				</g>
			</g>
		</g>
		<g>
			<g>
				<g>
					<g>
						<g>
							<g>
								<g>
									<g>
										<g>
											
												<rect x="-0.134" y="20.239" transform="matrix(-0.1418 -0.9899 0.9899 -0.1418 -13.6385 29.0999)" fill="#4964AF" width="11.859" height="0.446"/>
										</g>
									</g>
								</g>
							</g>
						</g>
					</g>
				</g>
			</g>
			<g>
				<g>
					<g>
						<g>
							<g>
								<g>
									<g>
										<g>
											
												<rect x="3.391" y="18.062" transform="matrix(-0.1176 -0.9931 0.9931 -0.1176 -7.1731 30.1969)" fill="#4964AF" width="12.877" height="0.447"/>
										</g>
									</g>
								</g>
							</g>
						</g>
					</g>
				</g>
			</g>
			<g>
				<g>
					<g>
						<g>
							<g>
								<g>
									<g>
										<g>
											
												<rect x="6.994" y="15.275" transform="matrix(-0.1012 -0.9949 0.9949 -0.1012 0.1121 31.0978)" fill="#4964AF" width="14.219" height="0.447"/>
										</g>
									</g>
								</g>
							</g>
						</g>
					</g>
				</g>
			</g>
			<g>
				<g>
					<g>
						<g>
							<g>
								<g>
									<g>
										<g>
											
												<rect x="10.381" y="12.807" transform="matrix(-0.0277 -0.9996 0.9996 -0.0277 5.471 31.3816)" fill="#4964AF" width="15.233" height="0.446"/>
										</g>
									</g>
								</g>
							</g>
						</g>
					</g>
				</g>
			</g>
			<g>
				<g>
					<g>
						<g>
							<g>
								<g>
									<g>
										<g>
											
												<rect x="11.579" y="2.129" transform="matrix(-0.5456 -0.838 0.838 -0.5456 6.3056 31.9043)" fill="#4964AF" width="0.447" height="24.227"/>
										</g>
									</g>
								</g>
							</g>
						</g>
					</g>
				</g>
			</g>
			<g>
				<g>
					<g>
						<g>
							<g>
								<g>
									<g>
										<g>
											
												<rect x="11.63" y="7.96" transform="matrix(-0.5204 -0.8539 0.8539 -0.5204 1.8506 38.9168)" fill="#4964AF" width="0.447" height="21.957"/>
										</g>
									</g>
								</g>
							</g>
						</g>
					</g>
				</g>
			</g>
		</g>
	</g>
	<g>
		<g>
			<g>
				<g>
					<g>
						<g>
							<g>
								<g>
									<path fill="#AFC5E6" d="M12.136,40.905c-0.189,0-0.347-0.149-0.355-0.34l-0.063-1.301c-0.01-0.197,0.143-0.364,0.339-0.374
										c0.197-0.01,0.365,0.143,0.375,0.34l0.063,1.3c0.009,0.197-0.142,0.364-0.34,0.375
										C12.147,40.905,12.142,40.905,12.136,40.905z"/>
								</g>
							</g>
						</g>
					</g>
				</g>
			</g>
		</g>
	</g>
	<g>
		<g>
			<g>
				<g>
					<g>
						<g>
							<g>
								<g>
									<path fill="#AFC5E6" d="M33.292,31.442c-0.191,0-0.349-0.148-0.356-0.341l-0.063-1.3c-0.011-0.196,0.143-0.364,0.339-0.373
										c0.197-0.01,0.364,0.142,0.374,0.338l0.063,1.301c0.011,0.198-0.142,0.366-0.34,0.374
										C33.304,31.442,33.297,31.442,33.292,31.442z"/>
								</g>
							</g>
						</g>
					</g>
				</g>
			</g>
		</g>
	</g>
	<g>
		<g>
			<g>
				<g>
					<g>
						<g>
							<g>
								<g>
									<g>
										
											<rect x="17.954" y="23.069" transform="matrix(-0.8676 -0.4972 0.4972 -0.8676 33.1045 55.3956)" fill="#AFC5E6" width="11.942" height="0.444"/>
									</g>
								</g>
							</g>
						</g>
					</g>
				</g>
			</g>
		</g>
		<g>
			<g>
				<g>
					<g>
						<g>
							<g>
								<g>
									<g>
										
											<rect x="13.77" y="24.809" transform="matrix(-0.8677 -0.4971 0.4971 -0.8677 24.4264 56.5643)" fill="#AFC5E6" width="11.941" height="0.445"/>
									</g>
								</g>
							</g>
						</g>
					</g>
				</g>
			</g>
		</g>
		<g>
			<g>
				<g>
					<g>
						<g>
							<g>
								<g>
									<g>
										
											<rect x="10.083" y="26.44" transform="matrix(-0.8677 -0.4971 0.4971 -0.8677 16.7279 57.7793)" fill="#AFC5E6" width="11.941" height="0.447"/>
									</g>
								</g>
							</g>
						</g>
					</g>
				</g>
			</g>
		</g>
		<g>
			<g>
				<g>
					<g>
						<g>
							<g>
								<g>
									<g>
										
											<rect x="5.414" y="28.681" transform="matrix(-0.8677 -0.4971 0.4971 -0.8677 6.8951 59.6455)" fill="#AFC5E6" width="11.941" height="0.448"/>
									</g>
								</g>
							</g>
						</g>
					</g>
				</g>
			</g>
		</g>
	</g>
	<g>
		<g>
			<g>
				<g>
					<g>
						<g>
							<g>
								<g>
									<path fill="#AFC5E6" d="M33.826,31.81c-0.221,0-0.4-0.179-0.402-0.398l-0.033-6.894c0-0.029,0.002-0.061,0.009-0.088
										c0.01-0.046,1.007-4.603,2.024-9.121c0.601-2.655,1.092-4.78,1.46-6.313c0.732-3.05,0.797-3.088,0.984-3.201
										c0.19-0.115,0.438-0.053,0.552,0.137c0.084,0.142,0.071,0.316-0.02,0.442c-0.355,0.839-2.698,11.276-4.206,18.183
										l0.033,6.849c0,0.223-0.178,0.403-0.398,0.404C33.827,31.81,33.826,31.81,33.826,31.81z"/>
								</g>
							</g>
						</g>
					</g>
				</g>
			</g>
		</g>
	</g>
	<g>
		<g>
			<g>
				<g>
					<g>
						<g>
							<g>
								<g>
									<path fill="#4964AF" d="M4.726,37.334c-0.239,0-0.438-0.192-0.445-0.435l-0.063-2.103
										c-0.005-0.158,0.073-0.306,0.206-0.389l16.239-10.38l-0.077-9.154c-0.001-0.246,0.196-0.448,0.443-0.45
										c0.245-0.001,0.447,0.197,0.45,0.443l0.078,9.399c0.002,0.153-0.074,0.297-0.205,0.38L5.118,35.023l0.055,1.853
										c0.007,0.246-0.187,0.45-0.433,0.459C4.737,37.334,4.731,37.334,4.726,37.334z"/>
								</g>
							</g>
						</g>
					</g>
				</g>
			</g>
		</g>
	</g>
	<g>
		<g>
			<g>
				<g>
					<g>
						<g>
							<g>
								<path fill="#4964AF" d="M28.179-1.57v1.155l-1.604-0.798c-0.934-0.456-2.05-0.281-2.804,0.433
									c-0.396,0.377-0.646,0.883-0.718,1.426l-0.227,1.761L21.8,2.274l0.23-1.761c0.101-0.779,0.47-1.504,1.039-2.045
									c1.064-1.011,2.642-1.257,3.961-0.613L28.179-1.57z"/>
							</g>
						</g>
					</g>
				</g>
			</g>
		</g>
	</g>
	<g>
		<g>
			<g>
				<g>
					<g>
						<g>
							<g>
								<g>
									<g>
										<path fill="#F066A5" d="M35.959,3.563c0.311,0,0.609-0.174,0.752-0.473c0.201-0.415,0.025-0.912-0.391-1.112l-8.43-4.057
											c-0.415-0.201-0.912-0.024-1.111,0.391c-0.201,0.415-0.026,0.912,0.39,1.112l8.432,4.057
											C35.716,3.537,35.839,3.563,35.959,3.563z"/>
									</g>
								</g>
							</g>
						</g>
					</g>
				</g>
			</g>
			<g>
				<g>
					<g>
						<g>
							<g>
								<g>
									<g>
										<path fill="#F066A5" d="M35.959,3.83c-0.164,0-0.324-0.037-0.476-0.108l-8.433-4.058c-0.545-0.263-0.775-0.922-0.514-1.47
											c0.263-0.547,0.922-0.779,1.471-0.515l8.431,4.057c0.548,0.263,0.777,0.922,0.515,1.471
											C36.771,3.586,36.382,3.83,35.959,3.83z M27.528-1.893c-0.21,0-0.412,0.118-0.51,0.321
											c-0.135,0.281-0.016,0.62,0.263,0.755l8.433,4.057c0.077,0.037,0.16,0.056,0.245,0.056c0.22,0,0.416-0.123,0.511-0.32
											c0.134-0.281,0.016-0.62-0.264-0.755l-8.432-4.058C27.695-1.876,27.612-1.893,27.528-1.893z"/>
									</g>
								</g>
							</g>
						</g>
					</g>
				</g>
			</g>
		</g>
	</g>
	<g>
		<g>
			<g>
				<g>
					<g>
						<g>
							<g>
								<path fill="#AFC5E6" d="M39.432,4.92c-0.028-0.649-0.394-1.208-0.978-1.493l-1.924-0.94
									c-0.239-0.117-0.531-0.034-0.665,0.192c-0.077,0.128-0.099,0.282-0.057,0.424c0.04,0.14,0.135,0.251,0.265,0.316l1.924,0.94
									c0.244,0.119,0.393,0.354,0.397,0.626c0.004,0.251-0.134,0.492-0.363,0.629l0,0c-0.257,0.154-0.34,0.487-0.187,0.744
									l0.256,0.425l0.485-0.292C39.144,6.157,39.459,5.569,39.432,4.92z"/>
							</g>
						</g>
					</g>
				</g>
			</g>
		</g>
	</g>
	<g>
		<g id="XMLID_65_">
			<g>
				<g>
					<g id="XMLID_88_">
						<g>
							<g>
								<g>
									<g>
										<g>
											<polygon fill="#90BFE7" points="16.573,7.778 25.47,12.915 24.294,25.273 15.396,20.136 											"/>
										</g>
									</g>
								</g>
							</g>
						</g>
					</g>
					<g>
						<g>
							<g>
								<g>
									<g>
										<g>
											<polygon fill="#7BA2D5" points="28.437,11.204 26.176,11.611 25.47,12.915 24.294,25.273 26.176,22.025 29.377,22.539 
																							"/>
										</g>
									</g>
								</g>
							</g>
						</g>
					</g>
					<g id="XMLID_87_">
						<g>
							<g>
								<g>
									<g>
										<g>
											<polygon fill="#687BBC" points="29.377,22.539 26.176,22.025 24.294,25.273 											"/>
										</g>
									</g>
								</g>
							</g>
						</g>
					</g>
					<g>
						<g>
							<g>
								<g>
									<g>
										<g>
											<path fill="#FFFFFF" d="M22.559,12.56c-0.171-0.1-0.341-0.113-0.479-0.035c-0.12,0.067-0.198,0.198-0.216,0.367
												l-0.006,0.022l-0.009,0.015v0.034c0,0.266,0.105,0.565,0.314,0.772v2.798c0,0.533-0.149,0.917-0.436,1.082
												c-0.11,0.064-0.213,0.095-0.345,0.099c-0.235,0.007-0.503-0.076-0.79-0.241c-1.055-0.61-1.904-2.091-1.904-3.305v-2.647
												c0.106-0.015,0.243-0.096,0.305-0.224c0.01-0.018-0.002-0.036,0.003-0.056l0.008-0.011v-0.091
												c0-0.029,0.022-0.064,0.022-0.104c0-0.352-0.229-0.763-0.531-0.937c-0.174-0.101-0.342-0.112-0.478-0.033
												c-0.137,0.08-0.214,0.234-0.214,0.437c0,0.262,0.148,0.571,0.358,0.789v2.876c0,1.429,0.952,3.094,2.163,3.793
												c0.362,0.21,0.711,0.315,1.031,0.315c0.236,0,0.487-0.059,0.688-0.173c0.466-0.268,0.751-0.825,0.751-1.57V13.98
												c0-0.009,0.108-0.036,0.164-0.08c0.108-0.085,0.154-0.229,0.154-0.403C23.116,13.146,22.862,12.734,22.559,12.56z"/>
										</g>
									</g>
								</g>
							</g>
						</g>
					</g>
					<g>
						<g>
							<g>
								<g>
									<g>
										<g>
											<polygon fill="#687BBC" points="28.436,11.203 25.47,12.915 19.462,9.446 16.573,7.779 19.462,6.109 19.539,6.066 
																							"/>
										</g>
									</g>
								</g>
							</g>
						</g>
					</g>
					<g>
						<g>
							<g>
								<g>
									<g>
										<g>
											<polygon fill="#7BA2D5" points="19.533,6.109 19.533,9.446 16.644,7.779 											"/>
										</g>
									</g>
								</g>
							</g>
						</g>
					</g>
				</g>
			</g>
		</g>
		<g>
			<g>
				<g>
					<g>
						<g>
							<g>
								<g>
									<path fill="#7BA2D5" d="M10.437,17.764c-0.004,0.013-0.011,0.025-0.02,0.037c-0.001,0.002-0.001,0.004-0.004,0.007
										c-0.001,0.001-0.002,0.003-0.002,0.004v-0.094c0,0.014,0.015,0.028,0.01,0.042C10.421,17.76,10.437,17.763,10.437,17.764z"
										/>
								</g>
							</g>
						</g>
					</g>
				</g>
			</g>
		</g>
		<g>
			<g>
				<g>
					<g>
						<g>
							<g>
								<g>
									<g>
										<path fill="#7BA2D5" d="M7.311,28.977l0.001,0.004c0.002,0.008-0.001,0.017,0.002,0.023
											c0.001,0.005-0.007,0.012-0.006,0.019c0.001,0,0.005,0,0.007,0.002c0,0,0.002,0.002,0.003,0.002
											c0.004,0.007,0.011,0.015,0.018,0.021c0.001,0.003,0.006,0.006,0.01,0.008s0.004,0.002,0.006,0.005
											c0.002,0.002,0.004,0.004,0.006,0.007c0.009,0.007,0.021,0.011,0.031,0.019c0.001,0.002,0.002,0,0.003,0.002
											c0.01,0.003,0.023,0.008,0.032,0.011c0.009,0.004,0.016,0.007,0.023,0.011c0.003,0,0.004,0,0.005,0l1.975,0.506
											c0.027,0.009,0.055,0.011,0.085,0.012c0.003,0,0.007,0.003,0.01,0.003c0.006,0,0.015,0,0.023,0c0.014,0,0.026,0,0.042,0
											c0.005-0.003,0.01-0.003,0.015-0.003c0.011,0,0.023,0,0.035-0.001c0.003,0,0.009,0.001,0.012,0.001
											c0.001-0.001,0.006,0.005,0.007,0.005c0.014-0.002,0.035,0.017,0.049,0.014c0.006-0.003,0.021,0.03,0.025,0.028
											l0.01-0.005c0.005-0.001-0.001-0.035,0.002-0.035c0.013-0.004,0.017-0.037,0.029-0.041
											c0.005-0.002,0.006-0.014,0.011-0.017c0.002-0.001,0.002-0.013,0.004-0.013c0.001,0,0.001,0,0.002-0.001
											c0.004-0.001,0.012,0.003,0.015,0.002c0.012-0.005,0.025-0.008,0.039-0.014c0.003-0.002,0.005-0.002,0.008-0.004
											c0.003-0.003,0.007-0.003,0.01-0.005c0.007-0.005,0.013-0.007,0.019-0.012c0.011-0.006,0.02-0.013,0.031-0.021
											c0.003-0.002,0.006-0.003,0.009-0.008c0.001,0,0.001,0,0.002,0c0.018-0.013,0.034-0.027,0.048-0.043l4.654-4.782
											c0.064-0.066,0.085-0.134,0.07-0.193l-2.939-10.285c0.016,0.059-0.005,0.126-0.07,0.191l-4.654,4.785
											c-0.015,0.015-0.032,0.029-0.05,0.044c-0.002,0.002-0.006,0.004-0.01,0.006c-0.014,0.01-0.03,0.023-0.048,0.032
											c-0.002,0.001-0.006,0.006-0.01,0.007c-0.011,0.007-0.021,0.015-0.032,0.021c-0.009,0.005-0.017,0.01-0.025,0.013
											c-0.003,0.001-0.001,0.021-0.005,0.023c-0.021,0.007-0.035,0.042-0.056,0.048l-0.011,0.002
											c-0.021,0.006-0.052-0.016-0.073-0.011c-0.003,0-0.014-0.021-0.018-0.021c-0.017,0.002-0.034,0.001-0.049,0.003
											c-0.014,0.001-0.028,0-0.042,0c-0.01-0.001-0.023-0.001-0.033-0.002c-0.029-0.001-0.057-0.005-0.085-0.012l-1.974-0.505
											c-0.01-0.003-0.02-0.008-0.029-0.012c-0.01-0.004-0.022-0.008-0.032-0.013c-0.015-0.007-0.028-0.016-0.041-0.024
											c-0.001-0.002-0.003-0.003-0.005-0.004c-0.002-0.002-0.02-0.001-0.023-0.004L7.311,28.977z"/>
									</g>
								</g>
							</g>
						</g>
					</g>
				</g>
			</g>
			<g>
				<g>
					<g>
						<g>
							<g>
								<g>
									<g>
										<path fill="#F066A5" d="M4.38,18.737c0.006,0.009,0.012,0.017,0.02,0.024l-0.02-0.072c0.003,0.015,0,0.03,0.008,0.042
											C4.388,18.731,4.379,18.736,4.38,18.737z"/>
									</g>
								</g>
							</g>
						</g>
					</g>
				</g>
			</g>
			<g>
				<g>
					<g>
						<g>
							<g>
								<g>
									<g>
										<g>
											<path fill="#C7DDF3" d="M4.428,18.504c-0.127,0.13-0.088,0.271,0.087,0.316l1.974,0.506
												c0.176,0.045,0.421-0.023,0.546-0.155l4.655-4.783c0.126-0.13,0.087-0.272-0.087-0.317L9.63,13.565
												c-0.176-0.044-0.42,0.025-0.548,0.155L4.428,18.504z"/>
										</g>
									</g>
								</g>
							</g>
						</g>
					</g>
				</g>
			</g>
			<g>
				<g>
					<g>
						<g>
							<g>
								<g>
									<g>
										<path fill="#4964AF" d="M6.975,19.258l2.93,10.363c0,0-0.089,0.025-0.087,0.024c0.004-0.001-0.001-0.039,0.002-0.041
											c0.012-0.006,0.02-0.029,0.031-0.036c0.003-0.002,0.002-0.012,0.006-0.014c0.004-0.003,0.006-0.009,0.009-0.012
											c0.006-0.002,0.011-0.009,0.018-0.011c0.011-0.007,0.02-0.017,0.03-0.024c0.003-0.001,0.005-0.004,0.009-0.007
											c0.001,0,0.001-0.002,0.002-0.002c0.019-0.013,0.034-0.027,0.047-0.041l4.655-4.784c0.063-0.066,0.085-0.135,0.07-0.193
											l-2.939-10.285c0.016,0.059-0.005,0.126-0.069,0.191l-4.654,4.785c-0.015,0.016-0.032,0.029-0.05,0.044
											c-0.003,0.002-0.006,0.004-0.01,0.006c-0.012,0.013-0.028,0.025-0.046,0.035c-0.002,0.001,0.04-0.007,0.035-0.005
											C6.952,19.256,6.974,19.255,6.975,19.258z"/>
									</g>
								</g>
							</g>
						</g>
					</g>
				</g>
			</g>
		</g>
		<g>
			<g>
				<g>
					<g>
						<g>
							<g>
								<g>
									<g>
										<path fill="#8BBCE5" d="M32.836,19.921c0.013,0,0.043,0.012,0.054,0.009l-6.954,8l-0.002,0.003
											c-0.005,0.007,0.002,0.021-0.005,0.026c-0.005,0.003,0.011,0.024,0.009,0.026s-0.007-0.002-0.009,0
											c-0.002,0-0.005-0.002-0.005,0c-0.009,0.002-0.017,0.004-0.023,0.009c-0.005,0.002-0.012,0.002-0.016,0.002
											c0,0.002-0.005,0.002-0.007,0.002c-0.003,0.003-0.004,0.003-0.007,0.003c-0.013,0.002-0.024,0.004-0.037,0.004H25.83
											c-0.011,0-0.023-0.002-0.035-0.004c-0.007,0-0.017,0-0.023,0c-0.002,0-0.004-0.003-0.005-0.003l-2.935-0.549
											c-0.026-0.003-0.055-0.014-0.081-0.022c-0.004-0.002-0.007-0.002-0.009-0.004c-0.007-0.003-0.014-0.007-0.021-0.01
											c-0.012-0.006-0.021-0.01-0.032-0.016c-0.002,0-0.004-0.002-0.004-0.002c-0.007-0.004-0.012-0.004-0.016-0.006
											c-0.01-0.007-0.022-0.013-0.031-0.02c-0.003-0.001-0.009-0.002-0.012-0.004c-0.001-0.001-0.006,0.004-0.009,0.003
											c-0.013-0.009-0.039,0.001-0.052-0.009c-0.005-0.004-0.034,0.022-0.039,0.019l-0.018-0.016
											c-0.012-0.009,0.007-0.048-0.003-0.057c-0.004-0.004,0.015-0.032,0.012-0.036c-0.002-0.003-0.002-0.007-0.007-0.01
											c-0.002-0.003-0.005-0.008-0.009-0.012c-0.009-0.011-0.017-0.022-0.024-0.032c-0.002-0.002-0.003-0.005-0.006-0.008
											c-0.003-0.004-0.005-0.008-0.008-0.011c-0.004-0.007-0.008-0.011-0.01-0.017c-0.008-0.011-0.015-0.021-0.021-0.032
											c-0.002-0.003-0.005-0.006-0.006-0.01c-0.001,0-0.001,0-0.002-0.003c-0.01-0.02-0.019-0.039-0.025-0.059l-1.229-3.521
											c-0.029-0.086-0.021-0.158,0.019-0.203l7.008-8.083c-0.04,0.045-0.048,0.117-0.02,0.202l1.229,3.521
											c0.009,0.021,0.017,0.042,0.028,0.062c0.002,0.004,0.004,0.007,0.004,0.011c0.012,0.017,0.02,0.033,0.031,0.049
											c0.001,0.003,0.002,0.008,0.005,0.011c0.013,0.019,0.023,0.04,0.038,0.055c0.002,0.002-0.009,0.021-0.007,0.022
											c0.016,0.018,0.012,0.056,0.027,0.071l0.009,0.008c0.017,0.014,0.055,0.005,0.073,0.018
											c0.003,0.002,0.023-0.015,0.026-0.013c0.008,0.005,0.016,0.006,0.022,0.012c0.008,0.003,0.017,0.006,0.023,0.011
											c0.012,0.007,0.024,0.012,0.037,0.02c0.009,0.003,0.02,0.007,0.029,0.012c0.025,0.01,0.055,0.021,0.081,0.024l2.934,0.549
											c0.01,0.003,0.02,0.001,0.029,0.003C32.814,19.92,32.824,19.921,32.836,19.921z"/>
									</g>
								</g>
							</g>
						</g>
					</g>
				</g>
			</g>
			<g>
				<g>
					<g>
						<g>
							<g>
								<g>
									<g>
										<path fill="#6D9BD2" d="M32.923,19.89c-0.012,0.007-0.021,0.016-0.034,0.02c-0.003,0-0.003,0.002-0.006,0.003
											c-0.003,0.001-0.007,0.001-0.011,0.001l0.065-0.072c-0.009,0.011-0.006,0.032-0.02,0.04
											C32.918,19.882,32.925,19.889,32.923,19.89z"/>
									</g>
								</g>
							</g>
						</g>
					</g>
				</g>
			</g>
			<g>
				<g>
					<g>
						<g>
							<g>
								<g>
									<g>
										<g>
											<path fill="#DDEEFA" d="M32.985,19.666c0.061,0.171-0.036,0.283-0.213,0.25l-2.933-0.549
												c-0.177-0.032-0.37-0.199-0.43-0.37l-1.229-3.521c-0.063-0.17,0.033-0.284,0.211-0.251l2.933,0.548
												c0.178,0.034,0.372,0.2,0.431,0.371L32.985,19.666z"/>
										</g>
									</g>
								</g>
							</g>
						</g>
					</g>
				</g>
			</g>
			<g>
				<g>
					<g>
						<g>
							<g>
								<g>
									<g>
										<path fill="#C7DDF3" d="M29.699,19.323l-6.979,8.1c-0.001,0-0.02-0.016-0.021-0.017c-0.004-0.002-0.019-0.01-0.021-0.013
											c-0.011-0.007-0.024-0.015-0.033-0.021c-0.005-0.002-0.013-0.003-0.016-0.006c-0.001-0.001-0.009,0.003-0.01,0.003
											c-0.013-0.009-0.041,0-0.055-0.009c-0.002-0.004-0.032,0.021-0.036,0.017l-0.018-0.015
											c-0.012-0.009,0.004-0.047-0.005-0.057c-0.005-0.004,0.016-0.032,0.012-0.037c-0.003-0.002-0.003-0.007-0.005-0.009
											c-0.002-0.003-0.007-0.009-0.009-0.013c-0.01-0.009-0.018-0.021-0.025-0.031c-0.002-0.003-0.003-0.005-0.006-0.008
											c-0.002-0.005-0.004-0.007-0.007-0.012c-0.004-0.005-0.008-0.012-0.013-0.016c-0.007-0.011-0.014-0.021-0.019-0.032
											c-0.003-0.002-0.005-0.007-0.006-0.009c-0.001-0.003-0.001-0.003-0.001-0.004c-0.012-0.021-0.021-0.038-0.026-0.059
											l-1.229-3.521c-0.028-0.087-0.021-0.158,0.02-0.202l7.007-8.085c-0.04,0.045-0.048,0.117-0.019,0.203l1.229,3.521
											c0.008,0.022,0.017,0.042,0.026,0.062c0.002,0.005,0.004,0.007,0.006,0.011c0.01,0.017,0.019,0.033,0.03,0.05
											c0.001,0.003,0.002,0.008,0.004,0.011c0.013,0.018,0.023,0.039,0.039,0.055c0.002,0.002-0.009,0.021-0.007,0.022
											c0.016,0.018,0.012,0.056,0.026,0.071l0.009,0.008c0.018,0.015,0.055,0.006,0.074,0.018c0.003,0.002,0.038-0.002,0.042,0
											C29.667,19.306,29.698,19.324,29.699,19.323z"/>
									</g>
								</g>
							</g>
						</g>
					</g>
				</g>
			</g>
		</g>
		<g id="XMLID_64_">
			<g>
				<g>
					<g>
						<g>
							<g id="XMLID_71_">
								<g>
									<g>
										<g>
											<g>
												<g>
													<polygon fill="#DF5185" points="20.152,14.916 11.288,20.033 12.459,32.345 21.323,27.226 													"/>
												</g>
											</g>
										</g>
									</g>
								</g>
							</g>
							<g>
								<g>
									<g>
										<g>
											<g>
												<g>
													<polygon fill="#F066A5" points="11.288,20.033 10.585,18.734 8.334,18.328 7.397,29.62 10.585,29.108 12.459,32.345 
																											"/>
												</g>
											</g>
										</g>
									</g>
								</g>
							</g>
							<g id="XMLID_70_">
								<g>
									<g>
										<g>
											<g>
												<g>
													<polygon fill="#DF5185" points="7.397,29.62 10.585,29.108 12.459,32.345 													"/>
												</g>
											</g>
										</g>
									</g>
								</g>
							</g>
							<g>
								<g>
									<g>
										<g>
											<g>
												<g>
													<path fill="#FFFFFF" d="M14.188,19.679c0.171-0.099,0.341-0.111,0.478-0.035c0.121,0.067,0.197,0.197,0.215,0.364
														l0.032,0.023l0.036,0.015v0.036c0,0.263-0.104,0.562-0.314,0.769v2.788c0,0.531,0.122,0.914,0.406,1.077
														c0.112,0.064,0.201,0.094,0.331,0.099c0.235,0.008,0.522-0.075,0.806-0.24c1.053-0.606,1.917-2.083,1.917-3.288v-2.639
														c-0.105-0.014-0.268-0.095-0.331-0.224c-0.01-0.018,0.016-0.035,0.01-0.055l0.006-0.011v-0.091
														c0-0.029-0.05-0.065-0.05-0.104c0-0.35,0.215-0.76,0.517-0.933c0.172-0.1,0.333-0.112,0.468-0.033
														c0.137,0.079,0.238,0.233,0.238,0.436c0,0.26-0.124,0.568-0.334,0.786v2.867c0,1.421-0.975,3.08-2.18,3.775
														c-0.361,0.21-0.724,0.313-1.041,0.313c-0.235,0-0.465-0.057-0.665-0.172c-0.463-0.267-0.727-0.823-0.727-1.566v-2.542
														c0-0.008-0.136-0.035-0.191-0.078c-0.107-0.087-0.165-0.229-0.165-0.402C13.649,20.262,13.886,19.854,14.188,19.679z"
														/>
												</g>
											</g>
										</g>
									</g>
								</g>
							</g>
							<g>
								<g>
									<g>
										<g>
											<g>
												<g>
													<polygon fill="#7BA2D5" points="8.334,18.328 11.288,20.033 17.274,16.578 20.152,14.916 17.274,13.254 17.197,13.21 
																											"/>
												</g>
											</g>
										</g>
									</g>
								</g>
							</g>
							<g>
								<g>
									<g>
										<g>
											<g>
												<g>
													<polygon fill="#4964AF" points="17.257,13.254 17.257,16.578 20.136,14.916 													"/>
												</g>
											</g>
										</g>
									</g>
								</g>
							</g>
						</g>
					</g>
				</g>
			</g>
		</g>
	</g>
	<g>
		<g>
			<g>
				<g>
					<g>
						<g>
							<g>
								<g>
									<g>
										<path fill="#AFC5E6" d="M12.583,34.312c-0.083,0-0.168-0.023-0.243-0.066l-9.72-5.541c-0.126-0.073-0.216-0.2-0.24-0.346
											L0.574,17.775c-0.032-0.186,0.046-0.374,0.199-0.484c0.154-0.109,0.356-0.12,0.521-0.028l10.971,6.066
											c0.147,0.082,0.243,0.234,0.253,0.402l0.554,10.06c0.01,0.18-0.078,0.352-0.233,0.446
											C12.761,34.286,12.671,34.312,12.583,34.312z M3.309,27.965l8.735,4.98l-0.49-8.887l-9.84-5.442L3.309,27.965z"/>
									</g>
								</g>
							</g>
						</g>
					</g>
				</g>
			</g>
		</g>
		<g>
			<g>
				<g>
					<g>
						<g>
							<g>
								<g>
									<g>
										
											<rect x="0.342" y="24.807" transform="matrix(-0.1275 -0.9918 0.9918 -0.1275 -18.6 33.6976)" fill="#AFC5E6" width="10.359" height="0.446"/>
									</g>
								</g>
							</g>
						</g>
					</g>
				</g>
			</g>
		</g>
		<g>
			<g>
				<g>
					<g>
						<g>
							<g>
								<g>
									<g>
										
											<rect x="4.32" y="26.686" transform="matrix(-0.0793 -0.9968 0.9968 -0.0793 -17.01 38.1092)" fill="#AFC5E6" width="9.547" height="0.448"/>
									</g>
								</g>
							</g>
						</g>
					</g>
				</g>
			</g>
		</g>
	</g>
	<g>
		<g>
			<g>
				<g>
					<g>
						<g>
							<g>
								<g>
									<g>
										<g>
											
												<rect x="11.475" y="26.339" transform="matrix(-0.0503 -0.9987 0.9987 -0.0503 -8.9507 44.6138)" fill="#AFC5E6" width="10.522" height="0.447"/>
										</g>
									</g>
								</g>
							</g>
						</g>
					</g>
				</g>
			</g>
			<g>
				<g>
					<g>
						<g>
							<g>
								<g>
									<g>
										<g>
											
												<rect x="30.171" y="12.185" transform="matrix(-0.984 -0.1782 0.1782 -0.984 56.8599 43.7427)" fill="#AFC5E6" width="0.447" height="14.265"/>
										</g>
									</g>
								</g>
							</g>
						</g>
					</g>
				</g>
			</g>
			<g>
				<g>
					<g>
						<g>
							<g>
								<g>
									<g>
										<g>
											
												<rect x="25.498" y="15.424" transform="matrix(-0.9939 -0.1106 0.1106 -0.9939 48.8607 46.5621)" fill="#AFC5E6" width="0.446" height="13.006"/>
										</g>
									</g>
								</g>
							</g>
						</g>
					</g>
				</g>
			</g>
			<g>
				<g>
					<g>
						<g>
							<g>
								<g>
									<g>
										<g>
											
												<rect x="15.415" y="24.278" transform="matrix(-0.0134 -0.9999 0.9999 -0.0134 -3.0819 45.9606)" fill="#AFC5E6" width="11.437" height="0.445"/>
										</g>
									</g>
								</g>
							</g>
						</g>
					</g>
				</g>
			</g>
			<g>
				<g>
					<g>
						<g>
							<g>
								<g>
									<g>
										<g>
											
												<rect x="23.701" y="8.137" transform="matrix(-0.4481 -0.894 0.894 -0.4481 15.5974 52.2415)" fill="#AFC5E6" width="0.447" height="26.339"/>
										</g>
									</g>
								</g>
							</g>
						</g>
					</g>
				</g>
			</g>
			<g>
				<g>
					<g>
						<g>
							<g>
								<g>
									<g>
										<g>
											
												<rect x="23.358" y="13.377" transform="matrix(-0.4199 -0.9076 0.9076 -0.4199 10.1774 57.8637)" fill="#AFC5E6" width="0.447" height="24.604"/>
										</g>
									</g>
								</g>
							</g>
						</g>
					</g>
				</g>
			</g>
		</g>
		<g>
			<g>
				<g>
					<g>
						<g>
							<g>
								<g>
									<g>
										<path fill="#AFC5E6" d="M12.335,34.454l-0.89-11.032L37.859,8.499l-3.682,16.333L12.335,34.454z M12.381,23.918
											l0.744,9.212l20.281-8.935l3.141-13.929L12.381,23.918z"/>
									</g>
								</g>
							</g>
						</g>
					</g>
				</g>
			</g>
		</g>
	</g>
	<g>
		<g>
			<g>
				<g>
					<g>
						<g>
							<g>
								<g>
									<path fill="#AFC5E6" d="M12.671,41.798c-0.241,0-0.438-0.192-0.446-0.435l-0.056-2.024l-7.718-4.161
										c-0.216-0.118-0.298-0.39-0.181-0.605c0.117-0.217,0.388-0.298,0.605-0.181l7.945,4.286c0.14,0.074,0.23,0.22,0.234,0.38
										l0.063,2.281c0.007,0.245-0.188,0.451-0.434,0.458C12.681,41.797,12.676,41.798,12.671,41.798z"/>
								</g>
							</g>
						</g>
					</g>
				</g>
			</g>
		</g>
	</g>
	<g>
		<g>
			<g>
				<g>
					<g>
						<g>
							<g>
								<g>
									<path fill="#AFC5E6" d="M12.609,39.515c-0.167,0-0.328-0.095-0.405-0.257c-0.104-0.224-0.008-0.49,0.216-0.594
										l21.108-9.848c0.224-0.104,0.489-0.008,0.593,0.215c0.105,0.225,0.01,0.49-0.215,0.594l-21.109,9.848
										C12.737,39.502,12.672,39.515,12.609,39.515z"/>
								</g>
							</g>
						</g>
					</g>
				</g>
			</g>
		</g>
	</g>
	<g>
		<g>
			<g>
				<g>
					<path fill="#7BA2D5" d="M18.904,35.206c-0.003,0.009-0.007,0.015-0.012,0.022c-0.001,0.003-0.002,0.004-0.003,0.005
						c0,0.001-0.002,0.001-0.002,0.002v-0.058c0,0.008,0.01,0.016,0.007,0.023C18.894,35.204,18.904,35.206,18.904,35.206z"/>
				</g>
			</g>
		</g>
	</g>
</g>
</svg>
