<?xml version="1.0" encoding="utf-8"?>
<!-- Generator: Adobe Illustrator 16.0.0, SVG Export Plug-In . SVG Version: 6.00 Build 0)  -->
<!DOCTYPE svg PUBLIC "-//W3C//DTD SVG 1.1//EN" "http://www.w3.org/Graphics/SVG/1.1/DTD/svg11.dtd">
<svg version="1.1" id="Layer_1" xmlns="http://www.w3.org/2000/svg" xmlns:xlink="http://www.w3.org/1999/xlink" x="0px" y="0px"
	 width="40px" height="42px" viewBox="0 0 40 42" enable-background="new 0 0 40 42" xml:space="preserve">
<g>
	<g>
		<g>
			<path fill="#005BA0" d="M38.428,13.534c-0.487-1.151-1.077-2.246-1.763-3.277l-3.071,4.8c0.882,1.906,1.375,4.028,1.375,6.263
				c0,8.254-6.715,14.969-14.969,14.969S5.031,29.574,5.031,21.32S11.746,6.352,20,6.352c2.111,0,4.122,0.44,5.945,1.232l2.74-4.284
				c-0.296-0.143-0.596-0.279-0.899-0.408C25.318,1.849,22.699,1.32,20,1.32c-2.699,0-5.318,0.529-7.786,1.572
				C9.833,3.9,7.694,5.342,5.858,7.178c-1.836,1.836-3.278,3.974-4.285,6.356C0.529,16.002,0,18.621,0,21.32
				c0,2.698,0.529,5.318,1.573,7.785c1.007,2.382,2.449,4.521,4.285,6.356s3.975,3.278,6.356,4.285
				c2.467,1.044,5.087,1.573,7.786,1.573c2.699,0,5.318-0.529,7.786-1.573c2.382-1.007,4.521-2.449,6.356-4.285
				s3.277-3.975,4.285-6.356C39.471,26.639,40,24.019,40,21.32C40,18.621,39.471,16.002,38.428,13.534z"/>
		</g>
	</g>
	<g>
		<linearGradient id="SVGID_1_" gradientUnits="userSpaceOnUse" x1="11.4424" y1="17.1943" x2="39.4971" y2="17.1943">
			<stop  offset="0" style="stop-color:#262626"/>
			<stop  offset="1" style="stop-color:#FFFFFF"/>
		</linearGradient>
		<path fill="url(#SVGID_1_)" d="M19.703,29.937c-1.008-0.142-1.917-0.697-2.502-1.542l-5.106-7.375
			c-1.152-1.664-0.737-3.945,0.926-5.098c1.663-1.151,3.945-0.736,5.097,0.927l2.403,3.471L33.052,5.696
			c1.316-1.536,3.629-1.714,5.166-0.398c1.536,1.316,1.714,3.629,0.397,5.165L22.994,28.692c-0.739,0.862-1.836,1.333-2.97,1.274
			C19.916,29.962,19.809,29.951,19.703,29.937z"/>
		<path fill="#A42C57" d="M36.763,3.364l-0.399,1.089c-0.286-0.562-0.72-1.058-1.289-1.422c-1.704-1.09-3.97-0.593-5.061,1.111
			L19.635,20.364l-2.862-3.104c-1.372-1.487-3.689-1.581-5.176-0.21c-0.088,0.082-0.171,0.167-0.25,0.255h-0.93v2.358l0.001,0.002
			c-0.02,0.914,0.3,1.836,0.969,2.562l6.082,6.595c0.696,0.755,1.674,1.18,2.692,1.18c0.107,0,0.214-0.005,0.322-0.015
			c1.131-0.1,2.152-0.718,2.764-1.675L36.186,8.09c0.418-0.654,0.602-1.39,0.574-2.111l0.003-0.004V3.364z"/>
		<path fill="#F389B2" d="M20.161,28.01c-1.018,0-1.996-0.424-2.692-1.18l-6.082-6.594c-1.372-1.487-1.278-3.805,0.209-5.177
			c1.487-1.371,3.805-1.277,5.176,0.21l2.862,3.104L30.014,2.15c1.091-1.704,3.356-2.202,5.061-1.112s2.201,3.356,1.111,5.06
			L23.247,26.321c-0.612,0.956-1.633,1.575-2.764,1.675C20.375,28.005,20.268,28.01,20.161,28.01z"/>
		<path fill="#D4547C" d="M20.161,27.549c-1.018,0-1.996-0.425-2.692-1.18l-6.082-6.595c-1.372-1.486-1.278-3.805,0.209-5.176
			c1.487-1.372,3.805-1.277,5.176,0.209l2.862,3.104L30.014,1.689c1.091-1.704,3.356-2.202,5.061-1.111s2.201,3.355,1.111,5.06
			L23.247,25.86c-0.612,0.956-1.633,1.574-2.764,1.674C20.375,27.544,20.268,27.549,20.161,27.549z"/>
	</g>
</g>
</svg>
