<?xml version="1.0" encoding="utf-8"?>
<!-- Generator: Adobe Illustrator 16.0.0, SVG Export Plug-In . SVG Version: 6.00 Build 0)  -->
<!DOCTYPE svg PUBLIC "-//W3C//DTD SVG 1.1//EN" "http://www.w3.org/Graphics/SVG/1.1/DTD/svg11.dtd">
<svg version="1.1" id="Layer_1" xmlns="http://www.w3.org/2000/svg" xmlns:xlink="http://www.w3.org/1999/xlink" x="0px" y="0px"
	 width="120px" height="120px" viewBox="0 0 120 120" enable-background="new 0 0 120 120" xml:space="preserve">
<g id="XMLID_4249_">
	<path id="XMLID_2264_" fill="#D5D6DC" d="M111.508,113.562H70.996V45.026h39.837c0.372,0,0.675,0.302,0.675,0.675V113.562z"/>
	<path id="XMLID_4250_" fill="#D5D6DC" d="M64.724,0H11.623C9.216,0,7.266,1.951,7.266,4.357v109.204h61.815V4.357
		C69.081,1.951,67.13,0,64.724,0z"/>
	<rect id="XMLID_2263_" x="17.312" y="8.108" fill="#1C76A3" width="7.623" height="7.623"/>
	<rect id="XMLID_2262_" x="34.362" y="8.108" fill="#1C76A3" width="7.623" height="7.623"/>
	<rect id="XMLID_2261_" x="51.412" y="8.108" fill="#1C76A3" width="7.623" height="7.623"/>
	<rect id="XMLID_2260_" x="17.312" y="23.326" fill="#1C76A3" width="7.623" height="7.623"/>
	<rect id="XMLID_2259_" x="17.312" y="38.542" fill="#1C76A3" width="7.623" height="7.623"/>
	<rect id="XMLID_2258_" x="17.312" y="53.76" fill="#1C76A3" width="7.623" height="7.623"/>
	<rect id="XMLID_2257_" x="17.312" y="68.977" fill="#1C76A3" width="7.623" height="7.623"/>
	<rect id="XMLID_2256_" x="17.312" y="84.194" fill="#1C76A3" width="7.623" height="7.622"/>
	<rect id="XMLID_2255_" x="17.312" y="99.411" fill="#1C76A3" width="7.623" height="7.623"/>
	<rect id="XMLID_2254_" x="95.29" y="53.76" fill="#1C76A3" width="7.622" height="7.623"/>
	<rect id="XMLID_2253_" x="95.29" y="68.977" fill="#1C76A3" width="7.622" height="7.623"/>
	<rect id="XMLID_2252_" x="95.29" y="84.194" fill="#1C76A3" width="7.622" height="7.622"/>
	<rect id="XMLID_2251_" x="95.29" y="99.411" fill="#1C76A3" width="7.622" height="7.623"/>
	<rect id="XMLID_2250_" x="29.647" y="20.863" fill="#ECF0F3" width="67.718" height="92.698"/>
	<g id="XMLID_4251_">
		<rect id="XMLID_2249_" x="37.601" y="30.948" fill="#2BA2DC" width="11.15" height="11.149"/>
		<rect id="XMLID_2248_" x="57.931" y="30.948" fill="#2BA2DC" width="11.15" height="11.149"/>
		<rect id="XMLID_2247_" x="78.262" y="30.948" fill="#2BA2DC" width="11.149" height="11.149"/>
	</g>
	<g id="XMLID_4252_">
		<rect id="XMLID_2246_" x="37.601" y="49.823" fill="#2BA2DC" width="11.15" height="11.149"/>
		<rect id="XMLID_2245_" x="57.931" y="49.823" fill="#2BA2DC" width="11.15" height="11.149"/>
		<rect id="XMLID_2244_" x="78.262" y="49.823" fill="#2BA2DC" width="11.149" height="11.149"/>
	</g>
	<g id="XMLID_4253_">
		<rect id="XMLID_2243_" x="37.601" y="68.697" fill="#2BA2DC" width="11.15" height="11.149"/>
		<rect id="XMLID_2242_" x="57.931" y="68.697" fill="#2BA2DC" width="11.15" height="11.149"/>
		<rect id="XMLID_2241_" x="78.262" y="68.697" fill="#2BA2DC" width="11.149" height="11.149"/>
	</g>
	<path id="XMLID_4254_" fill="#FCD463" d="M71.569,89.161H55.443c-0.746,0-1.35,0.604-1.35,1.35v23.051h18.825V90.511
		C72.919,89.766,72.314,89.161,71.569,89.161z"/>
	<path id="XMLID_4255_" fill="#FCD463" d="M97.556,14.019H29.457c-1.89,0-3.422,1.532-3.422,3.422s1.532,3.422,3.422,3.422h68.099
		c1.891,0,3.423-1.532,3.423-3.422S99.446,14.019,97.556,14.019z"/>
	<path id="XMLID_4256_" fill="#647A8A" d="M112.949,113.562H7.05c-1.778,0-3.219,1.441-3.219,3.22c0,1.777,1.441,3.219,3.219,3.219
		h105.899c1.778,0,3.22-1.441,3.22-3.219C116.169,115.003,114.728,113.562,112.949,113.562z"/>
</g>
</svg>
