<?xml version="1.0" encoding="utf-8"?>
<!-- Generator: Adobe Illustrator 16.0.0, SVG Export Plug-In . SVG Version: 6.00 Build 0)  -->
<!DOCTYPE svg PUBLIC "-//W3C//DTD SVG 1.1//EN" "http://www.w3.org/Graphics/SVG/1.1/DTD/svg11.dtd">
<svg version="1.1" id="Layer_1" xmlns="http://www.w3.org/2000/svg" xmlns:xlink="http://www.w3.org/1999/xlink" x="0px" y="0px"
	 width="472px" height="100px" viewBox="0 0 472 100" enable-background="new 0 0 472 100" xml:space="preserve">
<g>
	<polygon fill="#E77B9C" points="92.563,58.429 81.816,54.223 81.816,16.846 	"/>
	<polygon fill="#D4547C" points="92.563,58.429 81.816,54.223 63.829,91.601 	"/>
	<polygon fill="#005BA0" points="34.161,66.838 17.341,82.256 63.829,91.601 	"/>
	<polygon fill="#247ABF" points="7.997,35.534 34.161,66.838 17.341,82.256 	"/>
	<polygon fill="#D4547C" points="36.964,5.633 45.841,20.117 7.997,35.534 	"/>
	<polygon fill="#E77B9C" points="81.816,16.846 45.841,20.117 36.964,5.633 	"/>
	<polygon fill="#00B6DE" points="43.806,19.643 32.231,65.732 76.427,50.159 	"/>
	<g>
		<line fill="none" stroke="#5D5F5F" stroke-width="0.5" stroke-miterlimit="10" x1="34.161" y1="2.816" x2="45.841" y2="16.846"/>
		<line fill="none" stroke="#5D5F5F" stroke-width="0.5" stroke-miterlimit="10" x1="34.161" y1="2.816" x2="2.816" y2="34.749"/>
		<line fill="none" stroke="#5D5F5F" stroke-width="0.5" stroke-miterlimit="10" x1="2.816" y1="34.749" x2="34.161" y2="69.655"/>
		<line fill="none" stroke="#5D5F5F" stroke-width="0.5" stroke-miterlimit="10" x1="34.161" y1="69.655" x2="14.525" y2="84.821"/>
		<line fill="none" stroke="#5D5F5F" stroke-width="0.5" stroke-miterlimit="10" x1="14.525" y1="82.005" x2="2.816" y2="34.749"/>
		<line fill="none" stroke="#5D5F5F" stroke-width="0.5" stroke-miterlimit="10" x1="34.161" y1="69.655" x2="45.841" y2="16.846"/>
		<line fill="none" stroke="#5D5F5F" stroke-width="0.5" stroke-miterlimit="10" x1="45.841" y1="16.846" x2="84.633" y2="55.086"/>
		<line fill="none" stroke="#5D5F5F" stroke-width="0.5" stroke-miterlimit="10" x1="84.633" y1="55.086" x2="34.161" y2="69.655"/>
		<line fill="none" stroke="#5D5F5F" stroke-width="0.5" stroke-miterlimit="10" x1="34.161" y1="69.655" x2="63.829" y2="97.184"/>
		<line fill="none" stroke="#5D5F5F" stroke-width="0.5" stroke-miterlimit="10" x1="63.829" y1="97.184" x2="14.525" y2="84.821"/>
		<line fill="none" stroke="#5D5F5F" stroke-width="0.5" stroke-miterlimit="10" x1="63.829" y1="97.184" x2="98.363" y2="58.895"/>
		<line fill="none" stroke="#5D5F5F" stroke-width="0.5" stroke-miterlimit="10" x1="98.363" y1="58.895" x2="84.633" y2="55.086"/>
		<line fill="none" stroke="#5D5F5F" stroke-width="0.5" stroke-miterlimit="10" x1="84.633" y1="55.086" x2="87.19" y2="15.099"/>
		<line fill="none" stroke="#5D5F5F" stroke-width="0.5" stroke-miterlimit="10" x1="87.19" y1="15.099" x2="98.363" y2="58.895"/>
		<line fill="none" stroke="#5D5F5F" stroke-width="0.5" stroke-miterlimit="10" x1="45.841" y1="16.846" x2="87.19" y2="15.099"/>
		<line fill="none" stroke="#5D5F5F" stroke-width="0.5" stroke-miterlimit="10" x1="87.19" y1="15.099" x2="34.161" y2="2.816"/>
		<line fill="none" stroke="#5D5F5F" stroke-width="0.5" stroke-miterlimit="10" x1="2.816" y1="34.749" x2="45.105" y2="16.846"/>
		<line fill="none" stroke="#5D5F5F" stroke-width="0.5" stroke-miterlimit="10" x1="84.633" y1="55.086" x2="63.829" y2="97.184"/>
	</g>
	<g>
		<circle fill="#5D5F5F" cx="45.841" cy="16.846" r="2.816"/>
		<circle fill="#5D5F5F" cx="34.161" cy="69.655" r="2.816"/>
		<circle fill="#5D5F5F" cx="63.829" cy="97.184" r="2.816"/>
		<circle fill="#5D5F5F" cx="98.363" cy="58.895" r="2.816"/>
		<circle fill="#5D5F5F" cx="87.19" cy="15.099" r="2.816"/>
		<circle fill="#5D5F5F" cx="34.161" cy="2.816" r="2.816"/>
		<circle fill="#5D5F5F" cx="2.817" cy="34.749" r="2.817"/>
		<circle fill="#5D5F5F" cx="14.525" cy="84.821" r="2.816"/>
		<circle fill="#5D5F5F" cx="84.633" cy="55.086" r="2.817"/>
	</g>
	<path fill="#005BA0" d="M122.534,63.265c-3.485-3.399-5.229-7.727-5.229-12.98c0-5.255,1.743-9.59,5.229-13.007
		c3.485-3.417,7.77-5.126,12.853-5.126c3.64,0,6.877,0.824,9.71,2.472c2.834,1.648,4.972,4.053,6.414,7.213h-4.379
		c-1.099-2.095-2.679-3.709-4.739-4.843c-2.061-1.133-4.396-1.7-7.006-1.7c-4.156,0-7.59,1.374-10.302,4.121
		c-2.713,2.748-4.07,6.371-4.07,10.871c0,4.499,1.356,8.121,4.07,10.869c2.712,2.748,6.146,4.121,10.302,4.121
		c2.609,0,4.945-0.575,7.006-1.727c2.061-1.149,3.64-2.772,4.739-4.868h4.379c-1.442,3.161-3.58,5.564-6.414,7.213
		c-2.833,1.647-6.07,2.473-9.71,2.473C130.303,68.365,126.019,66.665,122.534,63.265z"/>
	<path fill="#005BA0" d="M156.713,32.511h12.003c3.639,0,6.43,0.885,8.371,2.653c1.939,1.77,2.91,4.044,2.91,6.826
		c0,3.95-2.266,6.525-6.799,7.727c2.266,0.378,4.103,1.417,5.512,3.117c1.408,1.7,2.112,3.752,2.112,6.155
		c0,2.404-1.065,4.516-3.193,6.336c-2.13,1.82-4.911,2.73-8.346,2.73h-12.569V32.511z M160.319,35.448v12.827h8.397
		c2.403,0,4.275-0.575,5.614-1.726c1.339-1.15,2.009-2.704,2.009-4.662c0-1.958-0.67-3.521-2.009-4.688s-3.211-1.751-5.614-1.751
		H160.319z M160.319,65.17h8.912c2.576,0,4.567-0.617,5.976-1.854c1.407-1.236,2.112-2.937,2.112-5.1s-0.782-3.872-2.344-5.126
		c-1.563-1.253-3.632-1.88-6.208-1.88h-8.448V65.17z"/>
	<path fill="#005BA0" d="M219.971,32.511v35.544h-3.607V40.702l-12.93,27.354h-2.113l-12.928-27.25v27.25h-3.606V32.511h3.349
		l14.269,30.342l14.218-30.342H219.971z"/>
	<path fill="#005BA0" d="M241.297,63.162c-3.537-3.469-5.307-7.864-5.307-13.188c0-5.323,1.778-9.718,5.333-13.188
		c3.555-3.469,7.908-5.203,13.059-5.203c3.916,0,7.393,0.997,10.432,2.988c3.039,1.992,5.211,4.791,6.518,8.397h-8.707
		c-1.615-3.159-4.363-4.739-8.242-4.739c-3.264,0-5.916,1.074-7.959,3.22c-2.043,2.146-3.064,4.997-3.064,8.551
		c0,3.555,1.021,6.405,3.064,8.551c2.043,2.147,4.551,3.22,7.521,3.22c2.969,0,5.307-0.729,7.006-2.189
		c1.701-1.459,2.756-3.425,3.168-5.897h-11.951v-5.512h19.73v5.512c-0.619,3.915-2.543,7.341-5.771,10.276
		c-3.229,2.937-7.287,4.405-12.182,4.405C249.051,68.365,244.834,66.632,241.297,63.162z"/>
	<path fill="#005BA0" d="M275.037,32.1h7.264v30.444h11.539v5.512h-18.803V32.1z"/>
	<path fill="#005BA0" d="M312.539,68.416c-5.186,0-9.549-1.733-13.084-5.202c-3.539-3.469-5.307-7.873-5.307-13.214
		c0-5.34,1.777-9.744,5.332-13.213c3.555-3.469,7.914-5.203,13.084-5.203c5.168,0,9.521,1.734,13.059,5.203
		c3.537,3.469,5.307,7.873,5.307,13.213c0,5.341-1.77,9.745-5.307,13.214S317.725,68.416,312.539,68.416z M320.473,58.551
		c2.025-2.146,3.039-5.004,3.039-8.576c0-3.571-1.014-6.421-3.039-8.552c-2.027-2.128-4.672-3.193-7.934-3.193
		c-3.264,0-5.916,1.074-7.959,3.22c-2.043,2.146-3.064,4.997-3.064,8.551c0,3.555,1.021,6.405,3.064,8.551
		c2.043,2.147,4.695,3.22,7.959,3.22C315.801,61.771,318.445,60.698,320.473,58.551z"/>
	<path fill="#005BA0" d="M334.07,32.1h14.578c3.674,0,6.568,0.893,8.682,2.679c2.111,1.786,3.168,4.053,3.168,6.8
		c0,4.018-2.336,6.715-7.006,8.087c2.369,0.344,4.266,1.365,5.691,3.065c1.424,1.699,2.137,3.667,2.137,5.898
		c0,2.815-1.064,5.092-3.193,6.825c-2.131,1.734-5.014,2.602-8.652,2.602H334.07V32.1z M341.334,37.663v9.324h6.543
		c1.613,0,2.893-0.403,3.838-1.21c0.943-0.807,1.416-1.949,1.416-3.426c0-1.476-0.473-2.628-1.416-3.452
		c-0.945-0.824-2.225-1.236-3.838-1.236H341.334z M341.334,62.492h7.314c1.613,0,2.91-0.438,3.891-1.313
		c0.979-0.875,1.467-2.086,1.467-3.632s-0.498-2.764-1.492-3.657c-0.998-0.894-2.303-1.34-3.916-1.34h-7.264V62.492z"/>
	<path fill="#005BA0" d="M388.572,68.056l-2.318-6.748h-14.012l-2.318,6.748h-7.676l12.725-36.059h8.602l12.674,36.059H388.572z
		 M374.146,55.744h10.252l-5.15-14.991L374.146,55.744z"/>
	<path fill="#005BA0" d="M398.719,32.1h7.264v30.444h11.539v5.512h-18.803V32.1z"/>
	<path fill="#00B6DE" d="M423.367,67.309c-0.496,0.499-1.09,0.747-1.775,0.747c-0.688,0-1.281-0.248-1.777-0.747
		c-0.5-0.497-0.748-1.09-0.748-1.776c0-0.688,0.248-1.28,0.748-1.777c0.496-0.498,1.09-0.748,1.777-0.748
		c0.686,0,1.279,0.25,1.775,0.748c0.498,0.497,0.748,1.09,0.748,1.777C424.115,66.219,423.865,66.812,423.367,67.309z"/>
	<path fill="#00B6DE" d="M428.492,68.056V32.511h3.607v35.544H428.492z"/>
	<path fill="#00B6DE" d="M440.674,63.29c-3.484-3.416-5.227-7.752-5.227-13.006c0-5.255,1.742-9.59,5.227-13.007
		c3.486-3.417,7.779-5.126,12.879-5.126s9.385,1.709,12.854,5.126c3.469,3.417,5.203,7.752,5.203,13.007
		c0,5.254-1.734,9.59-5.203,13.006c-3.469,3.418-7.754,5.126-12.854,5.126S444.16,66.708,440.674,63.29z M463.805,61.179
		c2.729-2.764,4.096-6.396,4.096-10.895c0-4.5-1.357-8.123-4.07-10.871c-2.713-2.747-6.148-4.121-10.303-4.121
		c-4.156,0-7.598,1.374-10.33,4.121c-2.729,2.748-4.094,6.371-4.094,10.871c0,4.499,1.365,8.131,4.094,10.895
		c2.732,2.765,6.166,4.146,10.305,4.146S461.074,63.943,463.805,61.179z"/>
</g>
</svg>
